<mxfile host="app.diagrams.net" agent="Mozilla/5.0 (Windows NT 10.0; Win64; x64) AppleWebKit/537.36 (KHTML, like Gecko) Chrome/140.0.0.0 Safari/537.36 Edg/140.0.0.0" scale="0.45" border="0" version="28.1.0">
  <diagram id="Ht1M8jgEwFfnCIfOTk4-" name="Page-1">
    <mxGraphModel dx="3912" dy="2852" grid="1" gridSize="10" guides="0" tooltips="1" connect="1" arrows="1" fold="1" page="1" pageScale="1" pageWidth="1169" pageHeight="827" background="none" math="0" shadow="1">
      <root>
        <mxCell id="0" />
        <mxCell id="1" parent="0" />
        <mxCell id="dGmgLIXejYUsXcEqvrMx-5" value="" style="rounded=0;html=1;fillColor=none;strokeWidth=2;glass=0;shadow=1;whiteSpace=wrap;strokeColor=#4D6888;" parent="1" vertex="1">
          <mxGeometry x="710" y="-150" width="280" height="680" as="geometry" />
        </mxCell>
        <mxCell id="NrVjd3gvD7i43o5AjEjT-88" value="" style="rounded=0;html=1;hachureGap=4;fontFamily=Architects Daughter;fontSource=https%3A%2F%2Ffonts.googleapis.com%2Fcss%3Ffamily%3DArchitects%2BDaughter;strokeWidth=2;fillColor=none;whiteSpace=wrap;strokeColor=#4D6888;" parent="1" vertex="1">
          <mxGeometry x="-1030" y="-670" width="1340" height="390" as="geometry" />
        </mxCell>
        <mxCell id="dGmgLIXejYUsXcEqvrMx-11" value="" style="rounded=0;html=1;fillColor=none;strokeWidth=2;glass=0;shadow=1;movable=1;resizable=1;rotatable=1;deletable=1;editable=1;locked=0;connectable=1;whiteSpace=wrap;strokeColor=#4D6888;" parent="1" vertex="1">
          <mxGeometry x="-1110" y="-150" width="320" height="840" as="geometry" />
        </mxCell>
        <mxCell id="79Z5ppwG9dLsAdDoF1kB-23" value="" style="rounded=1;html=1;fillColor=none;strokeWidth=2;glass=0;shadow=1;movable=1;resizable=1;rotatable=1;deletable=1;editable=1;locked=0;connectable=1;whiteSpace=wrap;strokeColor=#4D6888;" parent="1" vertex="1">
          <mxGeometry x="-1070" y="250" width="240" height="280" as="geometry" />
        </mxCell>
        <mxCell id="79Z5ppwG9dLsAdDoF1kB-18" value="" style="rounded=1;html=1;fillColor=none;strokeWidth=2;glass=0;shadow=1;movable=1;resizable=1;rotatable=1;deletable=1;editable=1;locked=0;connectable=1;whiteSpace=wrap;strokeColor=#4D6888;" parent="1" vertex="1">
          <mxGeometry x="-1070" y="-110" width="240" height="280" as="geometry" />
        </mxCell>
        <mxCell id="ZCVKqeAUbGFtYdAIj5f1-17" value="" style="rounded=0;html=1;hachureGap=4;fontFamily=Architects Daughter;fontSource=https%3A%2F%2Ffonts.googleapis.com%2Fcss%3Ffamily%3DArchitects%2BDaughter;strokeWidth=0.5;fillColor=none;whiteSpace=wrap;backgroundOutline=0;glass=0;strokeColor=#4D6888;" parent="1" vertex="1">
          <mxGeometry x="-170" y="-630" width="360" height="290" as="geometry" />
        </mxCell>
        <mxCell id="ZCVKqeAUbGFtYdAIj5f1-14" value="" style="rounded=0;html=1;hachureGap=4;fontFamily=Architects Daughter;fontSource=https%3A%2F%2Ffonts.googleapis.com%2Fcss%3Ffamily%3DArchitects%2BDaughter;strokeWidth=0.5;fillColor=none;whiteSpace=wrap;backgroundOutline=0;glass=0;strokeColor=#4D6888;" parent="1" vertex="1">
          <mxGeometry x="-920" y="-630" width="690" height="290" as="geometry" />
        </mxCell>
        <mxCell id="NrVjd3gvD7i43o5AjEjT-33" value="" style="rounded=0;html=1;fillColor=none;strokeWidth=2;glass=0;shadow=1;movable=1;resizable=1;rotatable=1;deletable=1;editable=1;locked=0;connectable=1;whiteSpace=wrap;strokeColor=#4D6888;" parent="1" vertex="1">
          <mxGeometry x="-620" y="-150" width="1160" height="680" as="geometry" />
        </mxCell>
        <mxCell id="NrVjd3gvD7i43o5AjEjT-56" value="" style="rounded=1;html=1;fillColor=none;perimeterSpacing=0;glass=1;shadow=1;strokeColor=#4D6888;points=[[0,0,0,0,0],[0,0.25,0,0,0],[0,0.5,0,0,0],[0,0.75,0,0,0],[0,1,0,0,0],[0.25,0,0,0,0],[0.25,1,0,0,0],[0.5,0,0,0,0],[0.5,1,0,0,0],[0.7,0,0,0,0],[0.75,1,0,0,0],[0.85,0,0,0,0],[0.99,0,0,0,0],[1,0.25,0,0,0],[1,0.5,0,0,0],[1,0.75,0,0,0],[1,1,0,0,0]];whiteSpace=wrap;" parent="1" vertex="1">
          <mxGeometry x="-500" y="-110" width="840" height="200" as="geometry" />
        </mxCell>
        <mxCell id="NrVjd3gvD7i43o5AjEjT-26" value="" style="shape=image;aspect=fixed;image=data:image/jpeg,/9j/4AAQSkZJRgABAQAAAQABAAD/4gKgSUNDX1BST0ZJTEUAAQEAAAKQbGNtcwQwAABtbnRyUkdCIFhZWiAAAAAAAAAAAAAAAABhY3NwQVBQTAAAAAAAAAAAAAAAAAAAAAAAAAAAAAAAAAAA9tYAAQAAAADTLWxjbXMAAAAAAAAAAAAAAAAAAAAAAAAAAAAAAAAAAAAAAAAAAAAAAAAAAAAAAAAAAAAAAAtkZXNjAAABCAAAADhjcHJ0AAABQAAAAE53dHB0AAABkAAAABRjaGFkAAABpAAAACxyWFlaAAAB0AAAABRiWFlaAAAB5AAAABRnWFlaAAAB+AAAABRyVFJDAAACDAAAACBnVFJDAAACLAAAACBiVFJDAAACTAAAACBjaHJtAAACbAAAACRtbHVjAAAAAAAAAAEAAAAMZW5VUwAAABwAAAAcAHMAUgBHAEIAIABiAHUAaQBsAHQALQBpAG4AAG1sdWMAAAAAAAAAAQAAAAxlblVTAAAAMgAAABwATgBvACAAYwBvAHAAeQByAGkAZwBoAHQALAAgAHUAcwBlACAAZgByAGUAZQBsAHkAAAAAWFlaIAAAAAAAAPbWAAEAAAAA0y1zZjMyAAAAAAABDEoAAAXj///zKgAAB5sAAP2H///7ov///aMAAAPYAADAlFhZWiAAAAAAAABvlAAAOO4AAAOQWFlaIAAAAAAAACSdAAAPgwAAtr5YWVogAAAAAAAAYqUAALeQAAAY3nBhcmEAAAAAAAMAAAACZmYAAPKnAAANWQAAE9AAAApbcGFyYQAAAAAAAwAAAAJmZgAA8qcAAA1ZAAAT0AAACltwYXJhAAAAAAADAAAAAmZmAADypwAADVkAABPQAAAKW2Nocm0AAAAAAAMAAAAAo9cAAFR7AABMzQAAmZoAACZmAAAPXP/bAEMABQMEBAQDBQQEBAUFBQYHDAgHBwcHDwsLCQwRDxISEQ8RERMWHBcTFBoVEREYIRgaHR0fHx8TFyIkIh4kHB4fHv/bAEMBBQUFBwYHDggIDh4UERQeHh4eHh4eHh4eHh4eHh4eHh4eHh4eHh4eHh4eHh4eHh4eHh4eHh4eHh4eHh4eHh4eHv/CABEIAZABkAMBIgACEQEDEQH/xAAbAAEBAQEBAQEBAAAAAAAAAAAABwgGBQMEAv/EABoBAQACAwEAAAAAAAAAAAAAAAADBgECBQT/2gAMAwEAAhADEAAAAZSAAAAAAAAAAAAAAAAAAAAAAAAAAAAAAAAAAAAAAAAAAAAAAAAAAAAAAAAAAAAAAAAAAAAAAAAAAAAAAAAAAAAAAAAAAAAAAAAAAAAAAAAAAAAAAAAAAAAAAAAAAAAAAAAAAB+78Op/BtmZqB4Nsp/z7PjdyN+v8mgvNmFtQOZvlb5UCf8AZ0fo/PXNExagcnfLP57JG+ro+vy7mTHKNQONJlz8mh88dLQPZgAAAAAAAAAAABqfLGp+JJ9xw5M1eN7PjXLztBZ90F4N+sFcliM/oE/tsCuSOuRZqQq001jdkjdohdzw3cz4uoqM/MZ40PniwxB1tAAAAAAAAAAAAGp8san4kn3HDkzV43s+NcvO0Fn3QXg36wVyWIz+gT+2wK5I65FmpCrTTWN2SN2iF3PDdzPi6ioz8xnjQ+eLDEHW0AAAAAAAAAAAAanyxqfiSfccOTNXjez41y87QWfdBeDfrBXJYjP6BP7bArkjrkWakKtNNY3ZI3aIXc8N3M+LqKjPzGeND54sMQdbQAAAAAAAAAAABqfLGp+JJ9xw5M1eN7PjXLztBZ90F4N+sFcliM/oE/tsCuSOuRZqQq001jdkjdohdzw3cz4uoqM/MZ40PniwxB1tAAAAAAAAAAAAGp8san4kn3HDkzV43s+NcvO0Fn3QXg36wVyWIz+gT+2wK5I65FmpCrTTWN2SN2iF3PDdzPi6ioz8xnjQ+eLDEPr1dPk6VFnmnS81vgNwAAAAAAAADU+WNT8ST7jhyZq8b2fGuXnaCz7oLwb9YK5LEZ/QJ/bYFckdcizUhVpprG7JG7RC7nhu5nxdRUZ+YzxofPFhier5Xq9LTTIpnoZR1dlHuRh24wAAAAAAAAGp8san4kn3HDkzV43s+NcvO0Fn3QXg36wVyWIz+gT+2wK5I65FmpCrTTWN2SN2iF3PDdzPi6ioz8xnjQ+eLDE9XyvV6WmmRTPQyjq7KPbjDuRgAAAAAAAANT5Y1PxJPuOHJmrxvZ8a5edoLPugvBv1grksRn9An9tgVyR1yLNSFWmmsbskbtELueG7mfF1FRn5jPGh88WGJ6vler0tNMim+hlHV2Ue3GHbjAAAAAAAAAanyxqfiSfccOTNXjez41y87QWfdBeDfrBXJYjP6BP7bArkjrkWakKtNNY3ZI3aIXc8N3M+LqKjPzGeND54sMQdbQMAAyAAAAAAAAAanyxqfiSfccOTNXjez41y87QWfdBeDfrBXJYjP6BP7bArkjrkWakKtNNY3ZI3aIXc8N3M+LqKjPzGeND54sMQdbQAAAAAAAAAAABqfLGp+JJ9xw5M1eN7PjXLztBZ90F4N+sFcliM/oE/tsCuSOuRZqQq001jdkjdohdzw3cz4uoqM/MZ40PniwxB1tAAAAAAAAAAAAGp8san4kn3HDkzV43s+NcvO0Fn3QXg36wVyWIz+gT+2wK5I65FmpCrTTWN2SN2iF3PDdzPi6ioz8xnjQ+eLDEHW0AAAAAAAAAAAAanyxqfiSfccOTNXjez41y87QWfdBeDfrBXJYjP6BP7bArkjrkWakKtNNY3ZI3aIXc8N3M+LqKjPzGeND54sMQdbQAAAAAAAAAAABpLNryZ0wzO8e3reSdXRcoagzphmd4Nu44c6mioS9pnTDM7nbVeUHR1dlxrfGmGZ3L3u0JPfqHpwAAAAAAAAAAAAAAAAAAAAAAAAAAAAAAAAAAAAAAAAAAAAAAAAAAAAAAAAAAAAAAAAAAAAAAAAAAAAAAAAAAAAAAAAAAAAAAAAAAAAAAAAAAAAAAAAAAAAAAAAAAAAAAAAAAB/8QAJBAAAQMCBwEBAQEAAAAAAAAAEAMGNQUzAAIEBzQ2QBUUAZD/2gAIAQEAAQUC/wAAfyavH49Xj8erxm/n9y5hk02oUy/j1ePx6vCqaiWYJIrK4/Hq8fj1eFUFkv4E086mb8erx+PV4z6bU5MvsQsCtzIaPXg/Jcbf2g/uCGTNh0wHsQsCtzIaPXg/Jcbf2g/uCGTNh0wHsQsCtzIaPXg/Jcbf2g/uCGTNh0wHsQsCtzIaPXg/Jcbf2g/uCGTNh0wHsQsCtzIaPXg/Jcbf2g/uCGTNh0wHsQsCtzIaPXg/Jcbf2g/uCGTNh0wHsQsCtzIaPXg/Jcbf2g/uCGTNh0wHsQsCtzIaPXg/Jcbf2g/uCGTNh0wHsQsCtzIaPXg/Jcbf2g/uCGTNh0wHsQsCtzIaPXg/Jcbf2g/uCGTNh0wHsQsCtzIaPXg/Jcbf2g/uCGTNh0wASyZlVPg1fHwavj4NW86FgVuZDR68H5Ljb+0H9wQyZsOmAFHl/ShYFbmQ0evB+S42/tB/cEMmbDpgBR5f0oWBW5kNHrwfkuNv7Qf3BDJmw6YAUeX9KFgVuZDR68H5Ljb+0H9wQyZsOmAFHl/ShYFbmQ0evB+S42/tB/cEMmbDpgBR5f0oWBW5kNHrwfkuNv7Qf3BDJmw6YAUeX9KFgVuZDR68H5Ljb+0H9wQyZsOmA9iFgVuZDR68H5Ljb+0H9wQyZsOmA9iFgVuZDR68H5Ljb+0H9wQyZsOmA9iFgVuZDR68H5Ljb+0H9wQyZsOmA9iFgVuZDR68H5Ljb+0H9wQyZsOmA9iFgVuZDR68H5Ljb+0H9wQyZsOmA9iFgVuZDR68H5Ljb+0H9wQyZsOmA9iFgVuZDR68H5Ljb+0H9wQyZsOmA9iFgVuZDR68H5Ljb+0H9wQyZsOmA9iFgVuZDR68H5Ljb+0H9wQyZsOmA9iNSp/8R+lTsfSp2Kxmy56qGvrdElQvpU7H0qdh6Lor1QMfU6bTp/Sp2PpU7D21Wl1GjDPWSQq/0qdj6VOw5NdolaJ/hr//xAAcEQACAwEBAQEAAAAAAAAAAAACMQABEDAREnD/2gAIAQMBAT8B/Axr2fGDXs+JcqvZ8S68lT4hV52DLgPCcF4bgvDfYMuA8JwXhuC8N9gy4DwnBeG4Lw32DLgPCcF4bgvDfYMuA8JwXhuC8N55fQMuA8JwXhuC8N6fMMuA8JwXhuC8N6fMMuA8JwXhuC8N6fMMuA8JwXhuC8N9gy4DwnBeG4Lw32DLgPCcF4bgvDfYMuA8JwXhuC8N9gy4DwnBeG4Lw32q/J95V+T7lyr8n3Lv2VPuXfv4L//EACkRAAAEBQIGAwEBAAAAAAAAAAABAgUDBBAzcTI0ERIVMDFRExRSQnD/2gAIAQIBAT8B/wADnZs5fhwLjxHWD/IQfMkjE5M/XRzEQ6wf5ECJ8iCV7EzG+GGax1g/yJWP80PmEaJ8aDV6HWD/ACJOZ+wk1GXeePCaQdBB2slmknZSHHbnRs25CbsKxRotH3njwmkHQQdrJZpJ2Uhx250bNuQm7CsUaLR57zx4TSDoIO1ks0k7KQ47c6Nm3ITdhWKNFo89548JpB0EHayWaSdlIcdudGzbkJuwrFGi0ee88eE0g6CDtZLNJOykOO3OjZtyE3YVijRaPNPsQv0QTESvSfHtvHhNIOgg7WSzSTspDjtzo2bchN2FYo0WjyImk6M/9dt48JpB0EHayWaSdlIcdudGzbkJuwrFGi0eRE0nRn/rtvHhNIOgg7WSzSTspDjtzo2bchN2FYo0WjyImkxwMM/9dt48JpB0EHayWaSdlIcdudGzbkJuwrFGi0eacO48eE0g6CDtZLNJOykOO3OjZtyE3YVijRaPPeePCaQdBB2slmknZSHHbnRs25CbsKxRotHnvPHhNIOgg7WSzSTspDjtzo2bchN2FYo0Wjz3njwmkHQQdrJZpJ2Uhx250bNuQm7CsUaLR96alCmOHE/A6Qj2ElylwEzLlMI5TMdIR7EKH8aCT6EeCUZBoMdIR7EvBKCjlIRYfyJNPsdIR7EtLFLp4Ef+C//EADIQAAAEBAQGAQIGAwEAAAAAAAECBBADcXOxQHKywQARNIKDkxIxQRMhMlGQkRRDYZL/2gAIAQEABj8C/gB6WN/4HjpY/rHjpY/rHgSmAQEPqAv8iQIpij9wIPHSx/WPHSx/WPHxiEMQf2MHJx/ChHPy+vxLz46WP6x46WP6x45xYMQmYvJ/jDIY4/sUOfHSx/WPHSx/WPHyOnilKH3Eg42HlB1lY13Td2oXhUAuZ1ky7unqbP4zOqkFwxsPKDrKxrum7tQvDoBczrJl3dPU2fxmdVILhjYeUHWVjXdN3aheHQC5nWTLu6eps/jM6qQXDGw8oOsrGu6bu1C8OgFzOsmXd09TZ/GZ1UguGNh5QdZWNd03dqF4dALmdZMu7p6mz+MzqpBcMbDyg6ysa7pu7ULw6AXM6yZd3T1Nn8ZnVSC4Y2HlB1lY13Td2oXh0AuZ1ky7unqbP4zOqkFwxsPKDrKxrum7tQvDoBczrJl3dPU2fxmdVILhjYeUHWVjXdN3aheHQC5nWTLu6eps/jM6qQXDGw8oOsrGu6bu1C8OgFzOsmXd09TZ/GZ1UguGNh5QdZWNd03dqF4dALmdZMu7p6mz+MzqpBcHLDIHM5h5AH/eOiP/AGHHRH/sOOiP/YYeHlB1lY13Td2oXh0AuZ1ky7unqbP4zOqkFwdHXJqxUPKDrKxrum7tQvDoBczrJl3dPU2fxmdVILg6OuTVioeUHWVjXdN3aheHQC5nWTLu6eps/jM6qQXB0dcmrFQ8oOsrGu6bu1C8OgFzOsmXd09TZ/GZ1UguDo65NWKh5QdZWNd03dqF4dALmdZMu7p6mz+MzqpBcHR1yasVDyg6ysa7pu7ULw6AXM6yZd3T1Nn8ZnVSC4Ojrk1YqHlB1lY13Td2oXh0AuZ1ky7unqbP4zOqkFwxsPKDrKxrum7tQvDoBczrJl3dPU2fxmdVILhjYeUHWVjXdN3aheHQC5nWTLu6eps/jM6qQXDGw8oOsrGu6bu1C8OgFzOsmXd09TZ/GZ1UguGNh5QdZWNd03dqF4dALmdZMu7p6mz+MzqpBcMbDyg6ysa7pu7ULw6AXM6yZd3T1Nn8ZnVSC4Y2HlB1lY13Td2oXh0AuZ1ky7unqbP4zOqkFwxsPKDrKxrum7tQvDoBczrJl3dPU2fxmdVILhjYeUHWVjXdN3aheHQC5nWTLu6eps/jM6qQXDGw8oOsrGu6bu1C8OgFzOsmXd09TZ/GZ1UguGNIAr0v6Q/2hx16X3F469L7i8KjkMBijGMICH3/ADdPDiq08M4fLmU0QAH9Q8del9xeOvS+4vEM0CNDil/BAOZDc/uLqv8AIUQoXMS8vmcA5/Xjr0vuLx16X3F4gFgKYMUQifn8DgP2f5xopIZfwx/M5uQcdel9xeOvS+4vCmHCWJznEA5FLEAR+ofwbf/EACcQAAEEAAYCAQUBAAAAAAAAAPABEDFRABEwUKHBIEAhQXGBkJFh/9oACAEBAAE/If0AosmaKopRg46wcdYVgtkgyVFdOx0VEX84OOsHHWM0PpnmVZfl0VVuGT+YOOsHHWEIgV+EVTN/X+tmcwrjBx1g46wu52IiJ7pqnJ20T1wOnc26Io2C8apy9tE98Tp3NujKNgvGqcvbRPfE6dzboyjYLxqnL20T3xOnc26Mo2C8apy9tE98Tp3NujKNgvGqcvbRPfE6dzboyjYLxqnL20T3xOnc26Mo2C8apy9tE98Tp3NujKNgvGqcvbRPfE6dzboyjYLxqnL20T3xOnc26Mo2C8apy9tE98Tp3NujKPK8rfS031UuSJgD7wB94Eu/XNU5e2ie+J07m3RlHleL09o1Tl7aJ74nTubdGUeV4vT2jVOXtonvidO5t0ZR5Xi9PaNU5e2ie+J07m3RlHleL09o1Tl7aJ74nTubdGUeV4vT2jVOXtonvidO5t0ZR5Xi9PaNU5e2ie+J07m3RlGwXjVOXtonvidO5t0ZRsF41Tl7aJ74nTubdGUbBeNU5e2ie+J07m3RlGwXjVOXtonvidO5t0ZRsF41Tl7aJ74nTubdGUbBeNU5e2ie+J07m3RlGwXjVOXtonvidO5t0ZRsF41Tl7aJ74nTubdGUbBeNU5e2ie+J07m3RlGwXkrBUzEWv74PO8HneFfXr5ojN8or/GjGc+aFXB53g87wl0CxIlFjzR0bV62UM8HneDzvC4oioVUT7FdC5LuUzvj6rg87wed4z4Cwz/JF/Rt/9oADAMBAAIAAwAAABDzzzzzzzzzzzzzzzzzzzzzzzzzzzzzzzzzzzzzzzzzzzzzzzzzzzzzzzzzzzzzzzzzzzzzzzzzzzzzzzzzzzzzzzzzzzzzzzzzzzzzzzzzzzzzzzzzzzzzzzzzzzzzzzzzzyrPW/HyjHanHfzzzzzzzzzzzzyoBfwD6oJWkBbzzzzzzzzzzzzyoBfwD6oJWkBbzzzzzzzzzzzzyoBfwD6oJWkBbzzzzzzzzzzzzyoBfwD6oJWkBbzzzzzzzzzzzzyoBfwD6oJWkBbrz3zzzzzzzzzyoBfwD6oJWkBb8JTzzzzzzzzzyoBfwD6oJWkBb8BbzzzzzzzzzyoBfwD6oJWkBb8BTzzzzzzzzzyoBfwD6oJWkBbz77zzzzzzzzzyoBfwD6oJWkBbzzzzzzzzzzzzyoBfwD6oJWkBbzzzzzzzzzzzzyoBfwD6oJWkBbzzzzzzzzzzzzyoBfwD6oJWkBbzzzzzzzzzzzzy316//wB+/wDr/wB3zzzzzzzzzzzzzzzzzzzzzzzzzzzzzzzzzzzzzzzzzzzzzzzzzzzzzzzzzzzzzzzzzzzzzzzzzzzzzzzzzzzzzzzzzzzzzzzzzzzzzzzzzzzzzzzzzzzzzzzzzzzzzzzzzzzz/8QAIBEAAgICAwADAQAAAAAAAAAAEDEAEQFBMEBRICFwYf/aAAgBAwEBPxD8EdfZn6zLVSvswrNS5Ur7LlTC81K+y3XNuGMyLIjoW4YzIsiOhbhjMiyI6FuGMyLIjoW4YzIsiPhfwmcZw+PcMZkWRBsMa8e4YzIsiDYY149wxmRZEGwxrx7hjMiyI6FuGMyLIjoW4YzIsiOhbhjMiyI6FuGMyLIjo3v5M/cvXL+TK83LFy/ksXMqzcv5L1/gv//EACgRAAEEAQQBAwUBAQAAAAAAAAEAEaGxEDAxYcHwUZHhIUFwgdFx8f/aAAgBAgEBPxD8BgT3D7+jf1D0Xv8AC5RAKIF45aCelwvf4RD4Zjo4wOzfT/Sy4Xv8IgjDO8Ig0Ox1wvf4RWQYtX91rPSG6hilEUcRlVsYkG1MYl9DWs9IbqGKURRxGVWxiQbUxjxuBrWekN1DFKIo4jKrYxINqYx43A1rPSG6hilEUcRlVsYkG1MY8bga1npDdQxSiKOIyq2MSDamMeNwESAHK/6A/qemGehB07PSG6hilEUcRlVsYkG1MY8bgKEaR3W39e9Oz0huoYpRFHEZVbGJBtTGPG4CjGkd1t/XvTs9IbqGKURRxGVWxiQbUxjxuAoRpFzZAQH8d6dnpDdQxSiKOIyq2MSDamMeNwMM9EABp2ekN1DFKIo4jKrYxINqYx43A1rPSG6hilEUcRlVsYkG1MY8bga1npDdQxSiKOIyq2MSDamMeNwNaz0huoYpRFHEZVbGJBtTGJfQ1hYGH1bcsh6uE2j9gyCGjF4I7XPhCElwDI5DAtBdc+EFGcB5QCpYAy58I8eOXr8C/wD/xAAjEAEAAQQDAAICAwAAAAAAAAABUQARMPAQIVAxQGGQQXGB/9oACAEBAAE/EP0AnzRcRxOSpU6ITALpEex5vX+65mzYFnsT/OVSoIMBQEpewG3T3+OShaBd3+L2Nvh5VKm0PZcoEF+ejzvSg+WwW3KpV2LA7xrdqWO/u7CGe98i27WfheaithDPO+5LdrPwrNRWwhnnfclu1n4VmorYQzzvuS3az8KzUVsIZ533JbtZ+FZqK2EM877kt2s/Cs1FbCGed9yW7WfhWaithDPO+5LdrPwrNRWwhnnfclu1n4VmorYQzzvuS3az8KzUVsIZ533JbtZ4bNT31eBKBfrtQ+yZMuythDPO+5LdrPLZqAv1SthDPO+5LdrPLZqAv1SthDPO+5LdrPLZqAv1SthDPO+5LdrPLZqAv1SthDPO+5LdrPLZqAv1SthDPO+5LdrPwrNQErYQzzvuS3az8KzUVsIZ533JbtZ+FZqK2EM877kt2s/Cs1FbCGed9yW7WfhWaithDPO+5LdrPwrNRWwhnnfclu1n4VmorYQzzvuS3az8KzUVsIZ533JbtZ+FZqK2EM877kt2s/Cs1FbCGed9yW7Wfh2aiA9A0QXE5mTJvRAusA6RP5OflWkhxXAlxH+k5MmQfOzqqlS9kbfk5dJqFQXO0va58TyZM3JGtlC6NYvz8v8AbgdC4F3kyZJjiwojZC9C9R+jb//Z;shadow=1;whiteSpace=wrap;html=1;" parent="1" vertex="1">
          <mxGeometry x="810" y="-50" width="80" height="80" as="geometry" />
        </mxCell>
        <mxCell id="NrVjd3gvD7i43o5AjEjT-58" value="" style="points=[[0,0,0],[0.25,0,0],[0.5,0,0],[0.75,0,0],[1,0,0],[0,1,0],[0.25,1,0],[0.5,1,0],[0.75,1,0],[1,1,0],[0,0.25,0],[0,0.5,0],[0,0.75,0],[1,0.25,0],[1,0.5,0],[1,0.75,0]];outlineConnect=0;fontColor=#232F3E;fillColor=#002855;strokeColor=#ffffff;dashed=0;verticalLabelPosition=bottom;verticalAlign=top;align=center;html=1;fontSize=12;fontStyle=0;aspect=fixed;shape=mxgraph.aws4.resourceIcon;resIcon=mxgraph.aws4.vpc;shadow=1;whiteSpace=wrap;sketch=0;fontFamily=Helvetica;" parent="1" vertex="1">
          <mxGeometry x="460" y="400" width="78" height="78" as="geometry" />
        </mxCell>
        <mxCell id="NrVjd3gvD7i43o5AjEjT-81" value="&lt;b style=&quot;&quot;&gt;&lt;font style=&quot;font-size: 16px;&quot;&gt;Astro VPC&lt;/font&gt;&lt;/b&gt;" style="text;html=1;align=center;verticalAlign=middle;rounded=0;fontFamily=Architects Daughter;fontSource=https%3A%2F%2Ffonts.googleapis.com%2Fcss%3Ffamily%3DArchitects%2BDaughter;whiteSpace=wrap;fontColor=#4D6888;" parent="1" vertex="1">
          <mxGeometry x="460" y="480" width="80" height="50" as="geometry" />
        </mxCell>
        <mxCell id="NrVjd3gvD7i43o5AjEjT-82" value="&lt;b style=&quot;&quot;&gt;&lt;font style=&quot;font-size: 16px;&quot;&gt;ClickHouse Cloud Dev&lt;/font&gt;&lt;/b&gt;" style="text;html=1;align=center;verticalAlign=middle;rounded=0;fontFamily=Architects Daughter;fontSource=https%3A%2F%2Ffonts.googleapis.com%2Fcss%3Ffamily%3DArchitects%2BDaughter;whiteSpace=wrap;fontColor=#4D6888;" parent="1" vertex="1">
          <mxGeometry x="810" y="30" width="80" height="50" as="geometry" />
        </mxCell>
        <mxCell id="NrVjd3gvD7i43o5AjEjT-89" value="" style="sketch=0;outlineConnect=0;fontColor=#232F3E;strokeColor=#ffffff;fillColor=#002855;dashed=0;verticalLabelPosition=bottom;verticalAlign=top;align=center;html=1;fontSize=12;fontStyle=0;aspect=fixed;shape=mxgraph.aws4.resourceIcon;resIcon=mxgraph.aws4.internet;hachureGap=4;jiggle=2;curveFitting=1;fontFamily=Helvetica;shadow=1;whiteSpace=wrap;" parent="1" vertex="1">
          <mxGeometry x="230" y="-400" width="80" height="80" as="geometry" />
        </mxCell>
        <mxCell id="NrVjd3gvD7i43o5AjEjT-103" value="" style="sketch=0;points=[[0,0,0],[0.25,0,0],[0.5,0,0],[0.75,0,0],[1,0,0],[0,1,0],[0.25,1,0],[0.5,1,0],[0.75,1,0],[1,1,0],[0,0.25,0],[0,0.5,0],[0,0.75,0],[1,0.25,0],[1,0.5,0],[1,0.75,0]];gradientDirection=north;outlineConnect=0;fontColor=#232F3E;gradientColor=none;fillColor=#0892FF;strokeColor=#ffffff;dashed=0;verticalLabelPosition=bottom;verticalAlign=top;align=center;html=1;fontSize=12;fontStyle=0;aspect=fixed;shape=mxgraph.aws4.resourceIcon;resIcon=mxgraph.aws4.general;hachureGap=4;jiggle=2;curveFitting=1;fontFamily=Helvetica;shadow=1;whiteSpace=wrap;" parent="1" vertex="1">
          <mxGeometry x="-370" y="-470" width="80" height="80" as="geometry" />
        </mxCell>
        <mxCell id="NrVjd3gvD7i43o5AjEjT-146" style="edgeStyle=orthogonalEdgeStyle;rounded=1;hachureGap=4;orthogonalLoop=1;jettySize=auto;html=1;exitX=0;exitY=0.5;exitDx=0;exitDy=0;exitPerimeter=0;fontFamily=Helvetica;shadow=1;strokeColor=#545B64;align=center;verticalAlign=middle;fontSize=11;fontColor=default;labelBackgroundColor=default;elbow=vertical;startArrow=none;startFill=0;endArrow=block;endFill=1;flowAnimation=1;curved=0;entryX=0.413;entryY=0.004;entryDx=0;entryDy=0;entryPerimeter=0;" parent="1" source="NrVjd3gvD7i43o5AjEjT-104" edge="1">
          <mxGeometry relative="1" as="geometry">
            <mxPoint x="-480" y="-400" as="sourcePoint" />
            <mxPoint x="-470.9200000000005" y="-147.2800000000002" as="targetPoint" />
            <Array as="points">
              <mxPoint x="-570" y="-430" />
              <mxPoint x="-570" y="-360" />
              <mxPoint x="-440" y="-360" />
              <mxPoint x="-440" y="-190" />
              <mxPoint x="-471" y="-190" />
            </Array>
          </mxGeometry>
        </mxCell>
        <mxCell id="NrVjd3gvD7i43o5AjEjT-104" value="" style="sketch=0;points=[[0,0,0],[0.25,0,0],[0.5,0,0],[0.75,0,0],[1,0,0],[0,1,0],[0.25,1,0],[0.5,1,0],[0.75,1,0],[1,1,0],[0,0.25,0],[0,0.5,0],[0,0.75,0],[1,0.25,0],[1,0.5,0],[1,0.75,0]];gradientDirection=north;outlineConnect=0;fontColor=#232F3E;gradientColor=none;fillColor=#0892FF;strokeColor=#ffffff;dashed=0;verticalLabelPosition=bottom;verticalAlign=top;align=center;html=1;fontSize=12;fontStyle=0;aspect=fixed;shape=mxgraph.aws4.resourceIcon;resIcon=mxgraph.aws4.general;hachureGap=4;jiggle=2;curveFitting=1;fontFamily=Helvetica;shadow=1;whiteSpace=wrap;" parent="1" vertex="1">
          <mxGeometry x="-530" y="-470" width="80" height="80" as="geometry" />
        </mxCell>
        <mxCell id="NrVjd3gvD7i43o5AjEjT-106" value="&lt;font style=&quot;font-size: 14px;&quot;&gt;&lt;b&gt;Azure Sentinel&lt;/b&gt;&lt;/font&gt;" style="text;html=1;align=center;verticalAlign=middle;rounded=0;fontFamily=Architects Daughter;fontSource=https%3A%2F%2Ffonts.googleapis.com%2Fcss%3Ffamily%3DArchitects%2BDaughter;whiteSpace=wrap;fontColor=#4D6888;" parent="1" vertex="1">
          <mxGeometry x="-540" y="-390" width="100" height="30" as="geometry" />
        </mxCell>
        <mxCell id="NrVjd3gvD7i43o5AjEjT-108" value="&lt;font style=&quot;font-size: 14px;&quot;&gt;&lt;b&gt;Sentinel One&lt;/b&gt;&lt;/font&gt;" style="text;html=1;align=center;verticalAlign=middle;rounded=0;fontFamily=Architects Daughter;fontSource=https%3A%2F%2Ffonts.googleapis.com%2Fcss%3Ffamily%3DArchitects%2BDaughter;whiteSpace=wrap;fontColor=#4D6888;" parent="1" vertex="1">
          <mxGeometry x="-370" y="-390" width="80" height="30" as="geometry" />
        </mxCell>
        <mxCell id="NrVjd3gvD7i43o5AjEjT-127" value="&lt;font face=&quot;Garamond&quot;&gt;&lt;b&gt;HTTPS&lt;/b&gt;&lt;/font&gt;" style="text;html=1;align=center;verticalAlign=middle;rounded=0;fontFamily=Architects Daughter;fontSource=https%3A%2F%2Ffonts.googleapis.com%2Fcss%3Ffamily%3DArchitects%2BDaughter;rotation=0;whiteSpace=wrap;fontColor=#4D6888;" parent="1" vertex="1">
          <mxGeometry x="-490" y="-280" width="40" height="30" as="geometry" />
        </mxCell>
        <mxCell id="NrVjd3gvD7i43o5AjEjT-139" value="&lt;pre&gt;&lt;b style=&quot;&quot;&gt;&lt;font face=&quot;Garamond&quot;&gt;PORT: 443&lt;/font&gt;&lt;/b&gt;&lt;/pre&gt;" style="text;html=1;align=center;verticalAlign=middle;rounded=0;fontFamily=Architects Daughter;fontSource=https%3A%2F%2Ffonts.googleapis.com%2Fcss%3Ffamily%3DArchitects%2BDaughter;rotation=0;whiteSpace=wrap;fontColor=#4D6888;" parent="1" vertex="1">
          <mxGeometry x="-440" y="-280" width="80" height="30" as="geometry" />
        </mxCell>
        <mxCell id="NrVjd3gvD7i43o5AjEjT-164" style="edgeStyle=orthogonalEdgeStyle;rounded=1;hachureGap=4;orthogonalLoop=1;jettySize=auto;html=1;exitX=1;exitY=0.5;exitDx=0;exitDy=0;exitPerimeter=0;fontFamily=Helvetica;shadow=1;strokeColor=#545B64;align=center;verticalAlign=middle;fontSize=11;fontColor=default;labelBackgroundColor=default;elbow=vertical;startArrow=none;startFill=0;endArrow=block;endFill=1;flowAnimation=1;curved=0;entryX=0.448;entryY=0.004;entryDx=0;entryDy=0;entryPerimeter=0;" parent="1" source="NrVjd3gvD7i43o5AjEjT-103" edge="1">
          <mxGeometry relative="1" as="geometry">
            <mxPoint x="-262" y="-410" as="sourcePoint" />
            <mxPoint x="-430.32000000000016" y="-147.2800000000002" as="targetPoint" />
            <Array as="points">
              <mxPoint x="-250" y="-430" />
              <mxPoint x="-250" y="-360" />
              <mxPoint x="-440" y="-360" />
              <mxPoint x="-440" y="-190" />
              <mxPoint x="-430" y="-190" />
            </Array>
          </mxGeometry>
        </mxCell>
        <mxCell id="NrVjd3gvD7i43o5AjEjT-165" value="" style="sketch=0;points=[[0,0,0],[0.25,0,0],[0.5,0,0],[0.75,0,0],[1,0,0],[0,1,0],[0.25,1,0],[0.5,1,0],[0.75,1,0],[1,1,0],[0,0.25,0],[0,0.5,0],[0,0.75,0],[1,0.25,0],[1,0.5,0],[1,0.75,0]];gradientDirection=north;outlineConnect=0;fontColor=#232F3E;gradientColor=none;fillColor=#0892FF;strokeColor=#ffffff;dashed=0;verticalLabelPosition=bottom;verticalAlign=top;align=center;html=1;fontSize=12;fontStyle=0;aspect=fixed;shape=mxgraph.aws4.resourceIcon;resIcon=mxgraph.aws4.general;hachureGap=4;jiggle=2;curveFitting=1;fontFamily=Helvetica;shadow=1;whiteSpace=wrap;" parent="1" vertex="1">
          <mxGeometry x="-370" y="-590" width="80" height="80" as="geometry" />
        </mxCell>
        <mxCell id="NrVjd3gvD7i43o5AjEjT-167" value="&lt;font style=&quot;font-size: 14px;&quot;&gt;&lt;b&gt;Group IB&lt;/b&gt;&lt;/font&gt;" style="text;html=1;align=center;verticalAlign=middle;rounded=0;fontFamily=Architects Daughter;fontSource=https%3A%2F%2Ffonts.googleapis.com%2Fcss%3Ffamily%3DArchitects%2BDaughter;whiteSpace=wrap;fontColor=#4D6888;" parent="1" vertex="1">
          <mxGeometry x="-370" y="-510" width="80" height="30" as="geometry" />
        </mxCell>
        <mxCell id="NrVjd3gvD7i43o5AjEjT-168" style="edgeStyle=orthogonalEdgeStyle;rounded=1;hachureGap=4;orthogonalLoop=1;jettySize=auto;html=1;exitX=1;exitY=0.5;exitDx=0;exitDy=0;exitPerimeter=0;fontFamily=Helvetica;shadow=1;strokeColor=#545B64;align=center;verticalAlign=middle;fontSize=11;fontColor=default;labelBackgroundColor=default;elbow=vertical;startArrow=none;startFill=0;endArrow=block;endFill=1;flowAnimation=1;curved=0;dashed=1;dashPattern=8 8;entryX=0.377;entryY=0;entryDx=0;entryDy=0;entryPerimeter=0;" parent="1" source="NrVjd3gvD7i43o5AjEjT-165" edge="1">
          <mxGeometry relative="1" as="geometry">
            <mxPoint x="-310" y="-560" as="sourcePoint" />
            <mxPoint x="-512.6799999999998" y="-150" as="targetPoint" />
            <Array as="points">
              <mxPoint x="-250" y="-550" />
              <mxPoint x="-250" y="-360" />
              <mxPoint x="-440" y="-360" />
              <mxPoint x="-440" y="-190" />
              <mxPoint x="-513" y="-190" />
            </Array>
          </mxGeometry>
        </mxCell>
        <mxCell id="NrVjd3gvD7i43o5AjEjT-169" value="" style="sketch=0;points=[[0,0,0],[0.25,0,0],[0.5,0,0],[0.75,0,0],[1,0,0],[0,1,0],[0.25,1,0],[0.5,1,0],[0.75,1,0],[1,1,0],[0,0.25,0],[0,0.5,0],[0,0.75,0],[1,0.25,0],[1,0.5,0],[1,0.75,0]];gradientDirection=north;outlineConnect=0;fontColor=#232F3E;gradientColor=none;fillColor=#0892FF;strokeColor=#ffffff;dashed=0;verticalLabelPosition=bottom;verticalAlign=top;align=center;html=1;fontSize=12;fontStyle=0;aspect=fixed;shape=mxgraph.aws4.resourceIcon;resIcon=mxgraph.aws4.general;hachureGap=4;jiggle=2;curveFitting=1;fontFamily=Helvetica;shadow=1;whiteSpace=wrap;" parent="1" vertex="1">
          <mxGeometry x="-130" y="-590" width="80" height="80" as="geometry" />
        </mxCell>
        <mxCell id="NrVjd3gvD7i43o5AjEjT-170" value="&lt;font style=&quot;font-size: 14px;&quot;&gt;&lt;b&gt;Qualys&lt;/b&gt;&lt;/font&gt;" style="text;html=1;align=center;verticalAlign=middle;rounded=0;fontFamily=Architects Daughter;fontSource=https%3A%2F%2Ffonts.googleapis.com%2Fcss%3Ffamily%3DArchitects%2BDaughter;whiteSpace=wrap;fontColor=#4D6888;" parent="1" vertex="1">
          <mxGeometry x="-130" y="-510" width="80" height="30" as="geometry" />
        </mxCell>
        <mxCell id="NrVjd3gvD7i43o5AjEjT-171" style="edgeStyle=orthogonalEdgeStyle;rounded=1;hachureGap=4;orthogonalLoop=1;jettySize=auto;html=1;exitX=1;exitY=0.5;exitDx=0;exitDy=0;fontFamily=Helvetica;shadow=1;strokeColor=#545B64;align=center;verticalAlign=middle;fontSize=11;fontColor=default;labelBackgroundColor=default;elbow=vertical;startArrow=none;startFill=0;endArrow=block;endFill=1;flowAnimation=1;curved=0;exitPerimeter=0;entryX=0.619;entryY=-0.002;entryDx=0;entryDy=0;entryPerimeter=0;" parent="1" source="NrVjd3gvD7i43o5AjEjT-169" edge="1">
          <mxGeometry relative="1" as="geometry">
            <mxPoint x="-210" y="-550" as="sourcePoint" />
            <mxPoint x="-231.96000000000004" y="-151.36000000000013" as="targetPoint" />
            <Array as="points">
              <mxPoint x="-10" y="-550" />
              <mxPoint x="-10" y="-360" />
              <mxPoint x="-210" y="-360" />
              <mxPoint x="-210" y="-190" />
              <mxPoint x="-232" y="-190" />
            </Array>
          </mxGeometry>
        </mxCell>
        <mxCell id="ZCVKqeAUbGFtYdAIj5f1-1" value="" style="sketch=0;points=[[0,0,0],[0.25,0,0],[0.5,0,0],[0.75,0,0],[1,0,0],[0,1,0],[0.25,1,0],[0.5,1,0],[0.75,1,0],[1,1,0],[0,0.25,0],[0,0.5,0],[0,0.75,0],[1,0.25,0],[1,0.5,0],[1,0.75,0]];gradientDirection=north;outlineConnect=0;fontColor=#232F3E;gradientColor=none;fillColor=#0892FF;strokeColor=#ffffff;dashed=0;verticalLabelPosition=bottom;verticalAlign=top;align=center;html=1;fontSize=12;fontStyle=0;aspect=fixed;shape=mxgraph.aws4.resourceIcon;resIcon=mxgraph.aws4.general;hachureGap=4;jiggle=2;curveFitting=1;fontFamily=Helvetica;shadow=1;whiteSpace=wrap;" parent="1" vertex="1">
          <mxGeometry x="-130" y="-470" width="80" height="80" as="geometry" />
        </mxCell>
        <mxCell id="ZCVKqeAUbGFtYdAIj5f1-3" value="&lt;font style=&quot;font-size: 14px;&quot;&gt;&lt;b&gt;NVD&lt;/b&gt;&lt;/font&gt;" style="text;html=1;align=center;verticalAlign=middle;rounded=0;fontFamily=Architects Daughter;fontSource=https%3A%2F%2Ffonts.googleapis.com%2Fcss%3Ffamily%3DArchitects%2BDaughter;whiteSpace=wrap;fontColor=#4D6888;" parent="1" vertex="1">
          <mxGeometry x="-130" y="-390" width="80" height="30" as="geometry" />
        </mxCell>
        <mxCell id="ZCVKqeAUbGFtYdAIj5f1-4" value="" style="sketch=0;points=[[0,0,0],[0.25,0,0],[0.5,0,0],[0.75,0,0],[1,0,0],[0,1,0],[0.25,1,0],[0.5,1,0],[0.75,1,0],[1,1,0],[0,0.25,0],[0,0.5,0],[0,0.75,0],[1,0.25,0],[1,0.5,0],[1,0.75,0]];gradientDirection=north;outlineConnect=0;fontColor=#232F3E;gradientColor=none;fillColor=#0892FF;strokeColor=#ffffff;dashed=0;verticalLabelPosition=bottom;verticalAlign=top;align=center;html=1;fontSize=12;fontStyle=0;aspect=fixed;shape=mxgraph.aws4.resourceIcon;resIcon=mxgraph.aws4.general;hachureGap=4;jiggle=2;curveFitting=1;fontFamily=Helvetica;shadow=1;whiteSpace=wrap;" parent="1" vertex="1">
          <mxGeometry x="30" y="-590" width="80" height="80" as="geometry" />
        </mxCell>
        <mxCell id="ZCVKqeAUbGFtYdAIj5f1-5" value="&lt;font style=&quot;font-size: 14px;&quot;&gt;&lt;b&gt;Criminal IP&lt;/b&gt;&lt;/font&gt;" style="text;html=1;align=center;verticalAlign=middle;rounded=0;fontFamily=Architects Daughter;fontSource=https%3A%2F%2Ffonts.googleapis.com%2Fcss%3Ffamily%3DArchitects%2BDaughter;whiteSpace=wrap;fontColor=#4D6888;" parent="1" vertex="1">
          <mxGeometry x="30" y="-510" width="80" height="30" as="geometry" />
        </mxCell>
        <mxCell id="ZCVKqeAUbGFtYdAIj5f1-6" value="" style="sketch=0;points=[[0,0,0],[0.25,0,0],[0.5,0,0],[0.75,0,0],[1,0,0],[0,1,0],[0.25,1,0],[0.5,1,0],[0.75,1,0],[1,1,0],[0,0.25,0],[0,0.5,0],[0,0.75,0],[1,0.25,0],[1,0.5,0],[1,0.75,0]];gradientDirection=north;outlineConnect=0;fontColor=#232F3E;gradientColor=none;fillColor=#0892FF;strokeColor=#ffffff;dashed=0;verticalLabelPosition=bottom;verticalAlign=top;align=center;html=1;fontSize=12;fontStyle=0;aspect=fixed;shape=mxgraph.aws4.resourceIcon;resIcon=mxgraph.aws4.general;hachureGap=4;jiggle=2;curveFitting=1;fontFamily=Helvetica;shadow=1;whiteSpace=wrap;" parent="1" vertex="1">
          <mxGeometry x="30" y="-470" width="80" height="80" as="geometry" />
        </mxCell>
        <mxCell id="ZCVKqeAUbGFtYdAIj5f1-7" value="&lt;font style=&quot;font-size: 14px;&quot;&gt;&lt;b&gt;Vulners&lt;/b&gt;&lt;/font&gt;" style="text;html=1;align=center;verticalAlign=middle;rounded=0;fontFamily=Architects Daughter;fontSource=https%3A%2F%2Ffonts.googleapis.com%2Fcss%3Ffamily%3DArchitects%2BDaughter;whiteSpace=wrap;fontColor=#4D6888;" parent="1" vertex="1">
          <mxGeometry x="30" y="-390" width="80" height="30" as="geometry" />
        </mxCell>
        <mxCell id="ZCVKqeAUbGFtYdAIj5f1-8" style="edgeStyle=orthogonalEdgeStyle;rounded=1;hachureGap=4;orthogonalLoop=1;jettySize=auto;html=1;exitX=1;exitY=0.5;exitDx=0;exitDy=0;fontFamily=Helvetica;shadow=1;strokeColor=#545B64;align=center;verticalAlign=middle;fontSize=11;fontColor=default;labelBackgroundColor=default;elbow=vertical;startArrow=none;startFill=0;endArrow=block;endFill=1;flowAnimation=1;curved=0;exitPerimeter=0;entryX=0.515;entryY=-0.002;entryDx=0;entryDy=0;entryPerimeter=0;" parent="1" source="ZCVKqeAUbGFtYdAIj5f1-4" edge="1">
          <mxGeometry relative="1" as="geometry">
            <mxPoint x="120" y="-550" as="sourcePoint" />
            <mxPoint x="-352.60000000000036" y="-151.36000000000013" as="targetPoint" />
            <Array as="points">
              <mxPoint x="160" y="-550" />
              <mxPoint x="160" y="-360" />
              <mxPoint x="-210" y="-360" />
              <mxPoint x="-210" y="-190" />
              <mxPoint x="-353" y="-190" />
            </Array>
          </mxGeometry>
        </mxCell>
        <mxCell id="ZCVKqeAUbGFtYdAIj5f1-9" style="edgeStyle=orthogonalEdgeStyle;rounded=1;hachureGap=4;orthogonalLoop=1;jettySize=auto;html=1;exitX=1;exitY=0.5;exitDx=0;exitDy=0;exitPerimeter=0;fontFamily=Helvetica;shadow=1;strokeColor=#545B64;align=center;verticalAlign=middle;fontSize=11;fontColor=default;labelBackgroundColor=default;elbow=vertical;startArrow=none;startFill=0;endArrow=block;endFill=1;flowAnimation=1;curved=0;entryX=0.584;entryY=0;entryDx=0;entryDy=0;entryPerimeter=0;" parent="1" source="ZCVKqeAUbGFtYdAIj5f1-1" edge="1">
          <mxGeometry relative="1" as="geometry">
            <mxPoint x="-200" y="-420" as="sourcePoint" />
            <mxPoint x="-272.5600000000004" y="-150" as="targetPoint" />
            <Array as="points">
              <mxPoint x="-50" y="-420" />
              <mxPoint x="-10" y="-420" />
              <mxPoint x="-10" y="-360" />
              <mxPoint x="-210" y="-360" />
              <mxPoint x="-210" y="-190" />
              <mxPoint x="-273" y="-190" />
            </Array>
          </mxGeometry>
        </mxCell>
        <mxCell id="ZCVKqeAUbGFtYdAIj5f1-18" value="&lt;font style=&quot;font-size: 14px;&quot;&gt;&lt;b&gt;3rd Party - Data Enrichment&lt;/b&gt;&lt;/font&gt;" style="text;html=1;align=center;verticalAlign=middle;rounded=0;fontFamily=Architects Daughter;fontSource=https%3A%2F%2Ffonts.googleapis.com%2Fcss%3Ffamily%3DArchitects%2BDaughter;whiteSpace=wrap;fontColor=#4D6888;" parent="1" vertex="1">
          <mxGeometry x="-130" y="-630" width="240" height="30" as="geometry" />
        </mxCell>
        <mxCell id="ZCVKqeAUbGFtYdAIj5f1-19" value="&lt;font style=&quot;font-size: 14px;&quot;&gt;&lt;b&gt;Non-SIEM Data Sources&lt;/b&gt;&lt;/font&gt;" style="text;html=1;align=center;verticalAlign=middle;rounded=0;fontFamily=Architects Daughter;fontSource=https%3A%2F%2Ffonts.googleapis.com%2Fcss%3Ffamily%3DArchitects%2BDaughter;whiteSpace=wrap;fontColor=#4D6888;" parent="1" vertex="1">
          <mxGeometry x="-530" y="-630" width="240" height="30" as="geometry" />
        </mxCell>
        <mxCell id="jcx5q0ECtgWjpwYE92kP-1" style="edgeStyle=orthogonalEdgeStyle;rounded=1;hachureGap=4;orthogonalLoop=1;jettySize=auto;html=1;exitX=1;exitY=0.5;exitDx=0;exitDy=0;fontFamily=Helvetica;shadow=1;strokeColor=#545B64;align=center;verticalAlign=middle;fontSize=11;fontColor=default;labelBackgroundColor=default;elbow=vertical;startArrow=none;startFill=0;endArrow=block;endFill=1;flowAnimation=1;curved=0;exitPerimeter=0;entryX=0.552;entryY=0;entryDx=0;entryDy=0;entryPerimeter=0;" parent="1" source="ZCVKqeAUbGFtYdAIj5f1-6" edge="1">
          <mxGeometry relative="1" as="geometry">
            <mxPoint x="130" y="-550" as="sourcePoint" />
            <mxPoint x="-309.67999999999984" y="-150" as="targetPoint" />
            <Array as="points">
              <mxPoint x="160" y="-430" />
              <mxPoint x="160" y="-360" />
              <mxPoint x="-210" y="-360" />
              <mxPoint x="-210" y="-190" />
              <mxPoint x="-310" y="-190" />
            </Array>
          </mxGeometry>
        </mxCell>
        <mxCell id="dGmgLIXejYUsXcEqvrMx-1" value="" style="shape=image;verticalLabelPosition=bottom;labelBackgroundColor=default;verticalAlign=top;aspect=fixed;imageAspect=0;editableCssRules=.*;image=data:image/svg+xml,PHN2ZyB4bWxuczp4bGluaz0iaHR0cDovL3d3dy53My5vcmcvMTk5OS94bGluayIgeG1sbnM9Imh0dHA6Ly93d3cudzMub3JnLzIwMDAvc3ZnIiB3aWR0aD0iMjU2IiB2aWV3Qm94PSIwIDAgMjU2IDI1NiIgcHJlc2VydmVBc3BlY3RSYXRpbz0ieE1pZFlNaWQiIGhlaWdodD0iMjU2Ij48cmFkaWFsR3JhZGllbnQgcj0iMTIwLjExNTY5NyUiIGdyYWRpZW50VHJhbnNmb3JtPSJtYXRyaXgoLjgzMjUzMSAwIDAgLjgzMjUzMSAwIC4xNjc0NjkpIiBjeT0iOTkuOTk5OTk0JSIgY3g9Ii4wMDAwMTYlIiBpZD0iYSI+PHN0b3Agc3RvcC1jb2xvcj0iIzAwYzgxMiIgb2Zmc2V0PSIwIi8+PHN0b3Agc3RvcC1jb2xvcj0iIzAwNmUwMCIgb2Zmc2V0PSIxIi8+PC9yYWRpYWxHcmFkaWVudD48cmFkaWFsR3JhZGllbnQgcj0iMTIwLjExNTY5NyUiIGdyYWRpZW50VHJhbnNmb3JtPSJtYXRyaXgoMCAuODMyNTM0IC0uODMyNTMxIDAgLS4wMDAwMDMgLS4wMDAwMDQpIiBjeT0iLS4wMDAzODUlIiBjeD0iLjAwMDAwNiUiIGlkPSJiIj48c3RvcCBzdG9wLWNvbG9yPSIjNTZhZmZkIiBvZmZzZXQ9IjAiLz48c3RvcCBzdG9wLWNvbG9yPSIjMDRhM2ZmIiBvZmZzZXQ9IjEiLz48L3JhZGlhbEdyYWRpZW50PjxyYWRpYWxHcmFkaWVudCByPSIxMjAuMTE1Njk3JSIgZ3JhZGllbnRUcmFuc2Zvcm09Im1hdHJpeCgtLjgzMjUzMSAwIDAgLS44MzI1MzEgMS44MzI1MzEgMCkiIGN5PSIuMDAwMDA2JSIgY3g9Ijk5Ljk5OTk4NCUiIGlkPSJjIj48c3RvcCBzdG9wLWNvbG9yPSIjZGYxZjAwIiBvZmZzZXQ9IjAiLz48c3RvcCBzdG9wLWNvbG9yPSIjNTYwZDAwIiBvZmZzZXQ9IjEiLz48L3JhZGlhbEdyYWRpZW50PjxyYWRpYWxHcmFkaWVudCByPSIxMjAuMTE1Njk3JSIgZ3JhZGllbnRUcmFuc2Zvcm09Im1hdHJpeCgwIC0uODMyNTM2IC44MzI1MzEgMCAuMTY3NDYzIDEuODMyNTQzKSIgY3k9IjEwMC4wMDA2OTQlIiBjeD0iOTkuOTk5OTk0JSIgaWQ9ImQiPjxzdG9wIHN0b3AtY29sb3I9IiMwMGZmZmQiIG9mZnNldD0iMCIvPjxzdG9wIHN0b3AtY29sb3I9IiMwMGRhZmYiIG9mZnNldD0iMSIvPjwvcmFkaWFsR3JhZGllbnQ+PHJhZGlhbEdyYWRpZW50IHI9Ijk5Ljk5OTY0JSIgZ3JhZGllbnRUcmFuc2Zvcm09Im1hdHJpeCgxIDAgMCAxLjAwMDAwMzUyIDAgLS4wMDAwMDQpIiBjeT0iOTkuOTk5OTk0JSIgY3g9Ii4wMDAzNTUlIiBpZD0iZSI+PHN0b3Agc3RvcC1jb2xvcj0iIzAwODIwMCIgb2Zmc2V0PSIwIi8+PHN0b3Agc3RvcC1jb2xvcj0iIzAwNzUwMCIgb2Zmc2V0PSIxIi8+PC9yYWRpYWxHcmFkaWVudD48cmFkaWFsR3JhZGllbnQgcj0iOTkuOTk5OTA0JSIgZ3JhZGllbnRUcmFuc2Zvcm09Im1hdHJpeCgwIDEgLTEuMDAwMDAwMDMgMCAuMDAwMDAxIC4wMDAwMDEpIiBjeT0iLjAwMDA5MSUiIGN4PSIuMDAwMDA2JSIgaWQ9ImYiPjxzdG9wIHN0b3AtY29sb3I9IiMzMTY2ZDQiIG9mZnNldD0iMCIvPjxzdG9wIHN0b3AtY29sb3I9IiMxYTUwOWUiIG9mZnNldD0iMSIvPjwvcmFkaWFsR3JhZGllbnQ+PHJhZGlhbEdyYWRpZW50IHI9IjEwMC4wMDAzNSUiIGdyYWRpZW50VHJhbnNmb3JtPSJtYXRyaXgoLTEgMCAwIC0uOTk5OTk2NTQgMi4wMDAwMDggMCkiIGN5PSIuMDAwMDA2JSIgY3g9IjEwMC4wMDAzNTUlIiBpZD0iZyI+PHN0b3Agc3RvcC1jb2xvcj0iIzhlMTQwMCIgb2Zmc2V0PSIwIi8+PHN0b3Agc3RvcC1jb2xvcj0iIzRiMGIwMCIgb2Zmc2V0PSIxIi8+PC9yYWRpYWxHcmFkaWVudD48cmFkaWFsR3JhZGllbnQgcj0iOTkuOTk5MzMzJSIgZ3JhZGllbnRUcmFuc2Zvcm09Im1hdHJpeCgwIC0xIDEuMDAwMDA3MDEgMCAtLjAwMDAxNyAyLjAwMDAxKSIgY3k9IjEwMC4wMDEwNDIlIiBjeD0iOTkuOTk5OTk0JSIgaWQ9ImgiPjxzdG9wIHN0b3AtY29sb3I9IiMwMDkwYzQiIG9mZnNldD0iMCIvPjxzdG9wIHN0b3AtY29sb3I9IiMwMDVkOGMiIG9mZnNldD0iMSIvPjwvcmFkaWFsR3JhZGllbnQ+PHJhZGlhbEdyYWRpZW50IHI9Ijk5Ljk5OTk5MiUiIGdyYWRpZW50VHJhbnNmb3JtPSJtYXRyaXgoMSAwIDAgLjk5OTk4NjAzIDAgLjAwMDAxNCkiIGN5PSI5OS45OTg5MDIlIiBjeD0iMCUiIGlkPSJpIj48c3RvcCBzdG9wLWNvbG9yPSIjMDBjZDFjIiBvZmZzZXQ9IjAiLz48c3RvcCBzdG9wLWNvbG9yPSIjMDBlOTUwIiBvZmZzZXQ9IjEiLz48L3JhZGlhbEdyYWRpZW50PjxyYWRpYWxHcmFkaWVudCByPSI5OS45OTk5OTIlIiBncmFkaWVudFRyYW5zZm9ybT0ibWF0cml4KDAgMSAtMS4wMDAwMDA3NiAwIDAgMCkiIGN5PSItLjAwMDAxMiUiIGN4PSItLjAwMDAwNyUiIGlkPSJqIj48c3RvcCBzdG9wLWNvbG9yPSIjYjFjOGZkIiBvZmZzZXQ9IjAiLz48c3RvcCBzdG9wLWNvbG9yPSIjN2VjM2ZkIiBvZmZzZXQ9IjEiLz48L3JhZGlhbEdyYWRpZW50PjxyYWRpYWxHcmFkaWVudCByPSI5OS45OTk5OTIlIiBncmFkaWVudFRyYW5zZm9ybT0ibWF0cml4KC0xIDAgMCAtMS4wMDAwMDA3NiAyIDApIiBjeT0iLS4wMDAwMDclIiBjeD0iOTkuOTk5OTg3JSIgaWQ9ImsiPjxzdG9wIHN0b3AtY29sb3I9IiNlMTJhMDAiIG9mZnNldD0iMCIvPjxzdG9wIHN0b3AtY29sb3I9IiNiNjJmMDAiIG9mZnNldD0iMSIvPjwvcmFkaWFsR3JhZGllbnQ+PHJhZGlhbEdyYWRpZW50IHI9Ijk5Ljk5ODM2NCUiIGdyYWRpZW50VHJhbnNmb3JtPSJtYXRyaXgoMCAtMSAxLjAwMDAxNjk1IDAgLS4wMDAwMTcgMikiIGN5PSIxMDAlIiBjeD0iMTAwLjAwMDAwNyUiIGlkPSJsIj48c3RvcCBzdG9wLWNvbG9yPSIjMDBiNmRkIiBvZmZzZXQ9IjAiLz48c3RvcCBzdG9wLWNvbG9yPSIjMGZmIiBvZmZzZXQ9IjEiLz48L3JhZGlhbEdyYWRpZW50PjxwYXRoIGZpbGw9InVybCgjYSkiIGQ9Im0xNzkuMiAyMzAuNGg3Ni44bC0xMjIuODgtMTAyLjRjLTEuNjg3IDM3LjE5MyAxNC42ODcgNzMuNTggNDYuMDggMTAyLjQiLz48cGF0aCBmaWxsPSJ1cmwoI2IpIiBkPSJtMjUuNiAxNzkuMnY3Ni44bDEwMi40LTEyMi44OGMtMS43NDYtLjA3OS0zLjQ4My0uMTE4LTUuMjI1LS4xMTgtMzUuMzYuMDAyLTY5LjcwOCAxNi4yNzktOTcuMTc1IDQ2LjE5OCIvPjxwYXRoIGZpbGw9InVybCgjYykiIGQ9Im0wIDI1LjYgMTIyLjg4IDEwMi40YzEuNjg3LTM3LjE5Mi0xNC42ODctNzMuNTgtNDYuMDgtMTAyLjR6Ii8+PHBhdGggZmlsbD0idXJsKCNkKSIgZD0ibTIzMC40IDAtMTAyLjQgMTIyLjg3OWMzNy4xOTMgMS42ODggNzMuNTgtMTQuNjg3IDEwMi40LTQ2LjA4eiIvPjxwYXRoIGZpbGw9InVybCgjZSkiIGQ9Im0xMjggMTI4Yy0xMS40NzkgMjkuNzU1LTkuNzQ1IDYwLjA4NiA1LjEyIDg5LjYwMSAxNS4zNiA3LjY3OSAyOC4xNiAxMi43OTkgNDYuMDggMTIuNzk5LTMxLjM5My0yOC44Mi00Ny43NjctNjUuMjA3LTQ2LjA4LTEwMi40eiIvPjxwYXRoIGZpbGw9InVybCgjZikiIGQ9Im0zOC40IDEzMy4xMmMtNy42NzkgMTUuMzYxLTEyLjggMjguMTYtMTIuOCA0Ni4wOCAyOC44MTktMzEuMzkzIDY1LjIwNy00Ny43NjYgMTAyLjQtNDYuMDh2LTUuMTJjLTEyLjk0NC00Ljk5My0yNS45OTQtNy40ODYtMzkuMDQtNy40ODYtMTYuOTQ2LjAwMS0zMy44ODQgNC4yMDctNTAuNTYgMTIuNjA2Ii8+PHBhdGggZmlsbD0idXJsKCNnKSIgZD0ibTEyMi44OCAxMjhoNS4xMmMxMS40NzgtMjkuNzU1IDkuNzQ1LTYwLjA4Ny01LjEyLTg5LjYtMTUuMzYtNy42OC0yOC4xNTktMTIuOC00Ni4wOC0xMi44IDMxLjM5MyAyOC44MiA0Ny43NjcgNjUuMjA4IDQ2LjA4IDEwMi40Ii8+PHBhdGggZmlsbD0idXJsKCNoKSIgZD0ibTEyOCAxMjIuODc5djUuMTIxYzI5Ljc1NSAxMS40NzggNjAuMDg2IDkuNzQ0IDg5LjYtNS4xMjEgNy42OC0xNS4zNTggMTIuOC0yOC4xNTggMTIuOC00Ni4wOC0yOC44MiAzMS4zOTMtNjUuMjA3IDQ3Ljc2OC0xMDIuNCA0Ni4wOCIvPjxwYXRoIGZpbGw9InVybCgjaSkiIGQ9Im03MS42OCAxNjYuNCA2MS40NCA1MS4yMDFjLTE0Ljg2NS0yOS41MTUtMTYuNTk5LTU5Ljg0Ni01LjEyLTg5LjYwMS0xLjc3Ni0uNTkyLTMuODU4LS44NzYtNi4xNTgtLjg3Ni0xNy41OTkuMDAxLTQ3Ljg5OCAxNi42MzUtNTAuMTYyIDM5LjI3NiIvPjxwYXRoIGZpbGw9InVybCgjaikiIGQ9Im0zOC40IDEzMy4xMmMyOS41MTQtMTQuODY1IDU5Ljg0NS0xNi41OTggODkuNi01LjEyIDUuMTItMTUuMzU5LTEyLjgtNTMuNzYtMzguNC01Ni4zMnoiLz48cGF0aCBmaWxsPSJ1cmwoI2spIiBkPSJtMTI4IDEyOGMxNS4zNiA1LjEyIDUzLjc1OS0xMi44IDU2LjMyLTM4LjRsLTYxLjQ0LTUxLjJjMTQuODY1IDI5LjUxMyAxNi41OTggNTkuODQ1IDUuMTIgODkuNiIvPjxwYXRoIGZpbGw9InVybCgjbCkiIGQ9Im0xMjggMTI4Yy01LjEyIDE1LjM2MSAxMi44IDUzLjc2IDM4LjQgNTYuMzJsNTEuMi02MS40NDFjLTI5LjUxNCAxNC44NjUtNTkuODQ1IDE2LjU5OS04OS42IDUuMTIxIi8+PHBhdGggZD0ibTEyNy45OTk4IDEyMS42MDA0YzMuNTM1IDAgNi40IDIuODY1IDYuNCA2LjM5OSAwIDMuNTM2LTIuODY1IDYuNDAxLTYuNCA2LjQwMS0zLjUzNCAwLTYuMzk5LTIuODY1LTYuMzk5LTYuNDAxIDAtMy41MzQgMi44NjUtNi4zOTkgNi4zOTktNi4zOTkiLz48L3N2Zz4=;" parent="1" vertex="1">
          <mxGeometry x="-130" y="420" width="60" height="60" as="geometry" />
        </mxCell>
        <mxCell id="dGmgLIXejYUsXcEqvrMx-2" style="edgeStyle=orthogonalEdgeStyle;rounded=1;orthogonalLoop=1;jettySize=auto;html=1;exitX=1;exitY=0.5;exitDx=0;exitDy=0;exitPerimeter=0;flowAnimation=1;shadow=1;strokeColor=#545B64;curved=0;entryX=0;entryY=0.5;entryDx=0;entryDy=0;" parent="1" source="NrVjd3gvD7i43o5AjEjT-56" target="NrVjd3gvD7i43o5AjEjT-26" edge="1">
          <mxGeometry relative="1" as="geometry">
            <mxPoint x="360" y="-30" as="sourcePoint" />
            <mxPoint x="580" y="-10.941176470588289" as="targetPoint" />
          </mxGeometry>
        </mxCell>
        <mxCell id="dGmgLIXejYUsXcEqvrMx-3" value="" style="rounded=1;html=1;hachureGap=4;fontFamily=Architects Daughter;fontSource=https%3A%2F%2Ffonts.googleapis.com%2Fcss%3Ffamily%3DArchitects%2BDaughter;fillColor=none;dashed=1;strokeWidth=2;whiteSpace=wrap;" parent="1" vertex="1">
          <mxGeometry x="510" y="210" width="220" height="190" as="geometry" />
        </mxCell>
        <mxCell id="dGmgLIXejYUsXcEqvrMx-4" value="" style="rounded=1;html=1;fillColor=none;perimeterSpacing=0;glass=1;shadow=1;strokeColor=#4D6888;points=[[0,0,0,0,0],[0,0.25,0,0,0],[0,0.5,0,0,0],[0,0.75,0,0,0],[0,1,0,0,0],[0.25,0,0,0,0],[0.25,1,0,0,0],[0.5,0,0,0,0],[0.5,1,0,0,0],[0.7,0,0,0,0],[0.75,1,0,0,0],[0.85,0,0,0,0],[0.99,0,0,0,0],[1,0.25,0,0,0],[1,0.5,0,0,0],[1,0.75,0,0,0],[1,1,0,0,0]];whiteSpace=wrap;" parent="1" vertex="1">
          <mxGeometry x="-500" y="210" width="840" height="200" as="geometry" />
        </mxCell>
        <mxCell id="dGmgLIXejYUsXcEqvrMx-25" style="edgeStyle=orthogonalEdgeStyle;rounded=1;orthogonalLoop=1;jettySize=auto;html=1;exitX=1;exitY=0.5;exitDx=0;exitDy=0;exitPerimeter=0;shadow=1;strokeColor=#545B64;align=center;verticalAlign=middle;fontFamily=Helvetica;fontSize=11;fontColor=default;labelBackgroundColor=default;endArrow=classic;flowAnimation=1;curved=0;" parent="1" source="dGmgLIXejYUsXcEqvrMx-6" target="dGmgLIXejYUsXcEqvrMx-7" edge="1">
          <mxGeometry relative="1" as="geometry" />
        </mxCell>
        <mxCell id="dGmgLIXejYUsXcEqvrMx-6" value="" style="points=[[0,0,0],[0.25,0,0],[0.5,0,0],[0.75,0,0],[1,0,0],[0,1,0],[0.25,1,0],[0.5,1,0],[0.75,1,0],[1,1,0],[0,0.25,0],[0,0.5,0],[0,0.75,0],[1,0.25,0],[1,0.5,0],[1,0.75,0]];outlineConnect=0;fontColor=#232F3E;fillColor=#002855;strokeColor=#ffffff;dashed=0;verticalLabelPosition=bottom;verticalAlign=top;align=center;html=1;fontSize=12;fontStyle=0;aspect=fixed;shape=mxgraph.aws4.resourceIcon;resIcon=mxgraph.aws4.vpc_privatelink;shadow=1;whiteSpace=wrap;sketch=0;fontFamily=Helvetica;" parent="1" vertex="1">
          <mxGeometry x="580" y="270" width="78" height="78" as="geometry" />
        </mxCell>
        <mxCell id="dGmgLIXejYUsXcEqvrMx-7" value="" style="shape=image;aspect=fixed;image=data:image/jpeg,/9j/4AAQSkZJRgABAQAAAQABAAD/4gKgSUNDX1BST0ZJTEUAAQEAAAKQbGNtcwQwAABtbnRyUkdCIFhZWiAAAAAAAAAAAAAAAABhY3NwQVBQTAAAAAAAAAAAAAAAAAAAAAAAAAAAAAAAAAAA9tYAAQAAAADTLWxjbXMAAAAAAAAAAAAAAAAAAAAAAAAAAAAAAAAAAAAAAAAAAAAAAAAAAAAAAAAAAAAAAAtkZXNjAAABCAAAADhjcHJ0AAABQAAAAE53dHB0AAABkAAAABRjaGFkAAABpAAAACxyWFlaAAAB0AAAABRiWFlaAAAB5AAAABRnWFlaAAAB+AAAABRyVFJDAAACDAAAACBnVFJDAAACLAAAACBiVFJDAAACTAAAACBjaHJtAAACbAAAACRtbHVjAAAAAAAAAAEAAAAMZW5VUwAAABwAAAAcAHMAUgBHAEIAIABiAHUAaQBsAHQALQBpAG4AAG1sdWMAAAAAAAAAAQAAAAxlblVTAAAAMgAAABwATgBvACAAYwBvAHAAeQByAGkAZwBoAHQALAAgAHUAcwBlACAAZgByAGUAZQBsAHkAAAAAWFlaIAAAAAAAAPbWAAEAAAAA0y1zZjMyAAAAAAABDEoAAAXj///zKgAAB5sAAP2H///7ov///aMAAAPYAADAlFhZWiAAAAAAAABvlAAAOO4AAAOQWFlaIAAAAAAAACSdAAAPgwAAtr5YWVogAAAAAAAAYqUAALeQAAAY3nBhcmEAAAAAAAMAAAACZmYAAPKnAAANWQAAE9AAAApbcGFyYQAAAAAAAwAAAAJmZgAA8qcAAA1ZAAAT0AAACltwYXJhAAAAAAADAAAAAmZmAADypwAADVkAABPQAAAKW2Nocm0AAAAAAAMAAAAAo9cAAFR7AABMzQAAmZoAACZmAAAPXP/bAEMABQMEBAQDBQQEBAUFBQYHDAgHBwcHDwsLCQwRDxISEQ8RERMWHBcTFBoVEREYIRgaHR0fHx8TFyIkIh4kHB4fHv/bAEMBBQUFBwYHDggIDh4UERQeHh4eHh4eHh4eHh4eHh4eHh4eHh4eHh4eHh4eHh4eHh4eHh4eHh4eHh4eHh4eHh4eHv/CABEIAZABkAMBIgACEQEDEQH/xAAbAAEBAQEBAQEBAAAAAAAAAAAABwgGBQMEAv/EABoBAQACAwEAAAAAAAAAAAAAAAADBgECBQT/2gAMAwEAAhADEAAAAZSAAAAAAAAAAAAAAAAAAAAAAAAAAAAAAAAAAAAAAAAAAAAAAAAAAAAAAAAAAAAAAAAAAAAAAAAAAAAAAAAAAAAAAAAAAAAAAAAAAAAAAAAAAAAAAAAAAAAAAAAAAAAAAAAAAB+78Op/BtmZqB4Nsp/z7PjdyN+v8mgvNmFtQOZvlb5UCf8AZ0fo/PXNExagcnfLP57JG+ro+vy7mTHKNQONJlz8mh88dLQPZgAAAAAAAAAAABqfLGp+JJ9xw5M1eN7PjXLztBZ90F4N+sFcliM/oE/tsCuSOuRZqQq001jdkjdohdzw3cz4uoqM/MZ40PniwxB1tAAAAAAAAAAAAGp8san4kn3HDkzV43s+NcvO0Fn3QXg36wVyWIz+gT+2wK5I65FmpCrTTWN2SN2iF3PDdzPi6ioz8xnjQ+eLDEHW0AAAAAAAAAAAAanyxqfiSfccOTNXjez41y87QWfdBeDfrBXJYjP6BP7bArkjrkWakKtNNY3ZI3aIXc8N3M+LqKjPzGeND54sMQdbQAAAAAAAAAAABqfLGp+JJ9xw5M1eN7PjXLztBZ90F4N+sFcliM/oE/tsCuSOuRZqQq001jdkjdohdzw3cz4uoqM/MZ40PniwxB1tAAAAAAAAAAAAGp8san4kn3HDkzV43s+NcvO0Fn3QXg36wVyWIz+gT+2wK5I65FmpCrTTWN2SN2iF3PDdzPi6ioz8xnjQ+eLDEPr1dPk6VFnmnS81vgNwAAAAAAAADU+WNT8ST7jhyZq8b2fGuXnaCz7oLwb9YK5LEZ/QJ/bYFckdcizUhVpprG7JG7RC7nhu5nxdRUZ+YzxofPFhier5Xq9LTTIpnoZR1dlHuRh24wAAAAAAAAGp8san4kn3HDkzV43s+NcvO0Fn3QXg36wVyWIz+gT+2wK5I65FmpCrTTWN2SN2iF3PDdzPi6ioz8xnjQ+eLDE9XyvV6WmmRTPQyjq7KPbjDuRgAAAAAAAANT5Y1PxJPuOHJmrxvZ8a5edoLPugvBv1grksRn9An9tgVyR1yLNSFWmmsbskbtELueG7mfF1FRn5jPGh88WGJ6vler0tNMim+hlHV2Ue3GHbjAAAAAAAAAanyxqfiSfccOTNXjez41y87QWfdBeDfrBXJYjP6BP7bArkjrkWakKtNNY3ZI3aIXc8N3M+LqKjPzGeND54sMQdbQMAAyAAAAAAAAAanyxqfiSfccOTNXjez41y87QWfdBeDfrBXJYjP6BP7bArkjrkWakKtNNY3ZI3aIXc8N3M+LqKjPzGeND54sMQdbQAAAAAAAAAAABqfLGp+JJ9xw5M1eN7PjXLztBZ90F4N+sFcliM/oE/tsCuSOuRZqQq001jdkjdohdzw3cz4uoqM/MZ40PniwxB1tAAAAAAAAAAAAGp8san4kn3HDkzV43s+NcvO0Fn3QXg36wVyWIz+gT+2wK5I65FmpCrTTWN2SN2iF3PDdzPi6ioz8xnjQ+eLDEHW0AAAAAAAAAAAAanyxqfiSfccOTNXjez41y87QWfdBeDfrBXJYjP6BP7bArkjrkWakKtNNY3ZI3aIXc8N3M+LqKjPzGeND54sMQdbQAAAAAAAAAAABpLNryZ0wzO8e3reSdXRcoagzphmd4Nu44c6mioS9pnTDM7nbVeUHR1dlxrfGmGZ3L3u0JPfqHpwAAAAAAAAAAAAAAAAAAAAAAAAAAAAAAAAAAAAAAAAAAAAAAAAAAAAAAAAAAAAAAAAAAAAAAAAAAAAAAAAAAAAAAAAAAAAAAAAAAAAAAAAAAAAAAAAAAAAAAAAAAAAAAAAAAB/8QAJBAAAQMCBwEBAQEAAAAAAAAAEAMGNQUzAAIEBzQ2QBUUAZD/2gAIAQEAAQUC/wAAfyavH49Xj8erxm/n9y5hk02oUy/j1ePx6vCqaiWYJIrK4/Hq8fj1eFUFkv4E086mb8erx+PV4z6bU5MvsQsCtzIaPXg/Jcbf2g/uCGTNh0wHsQsCtzIaPXg/Jcbf2g/uCGTNh0wHsQsCtzIaPXg/Jcbf2g/uCGTNh0wHsQsCtzIaPXg/Jcbf2g/uCGTNh0wHsQsCtzIaPXg/Jcbf2g/uCGTNh0wHsQsCtzIaPXg/Jcbf2g/uCGTNh0wHsQsCtzIaPXg/Jcbf2g/uCGTNh0wHsQsCtzIaPXg/Jcbf2g/uCGTNh0wHsQsCtzIaPXg/Jcbf2g/uCGTNh0wHsQsCtzIaPXg/Jcbf2g/uCGTNh0wHsQsCtzIaPXg/Jcbf2g/uCGTNh0wASyZlVPg1fHwavj4NW86FgVuZDR68H5Ljb+0H9wQyZsOmAFHl/ShYFbmQ0evB+S42/tB/cEMmbDpgBR5f0oWBW5kNHrwfkuNv7Qf3BDJmw6YAUeX9KFgVuZDR68H5Ljb+0H9wQyZsOmAFHl/ShYFbmQ0evB+S42/tB/cEMmbDpgBR5f0oWBW5kNHrwfkuNv7Qf3BDJmw6YAUeX9KFgVuZDR68H5Ljb+0H9wQyZsOmA9iFgVuZDR68H5Ljb+0H9wQyZsOmA9iFgVuZDR68H5Ljb+0H9wQyZsOmA9iFgVuZDR68H5Ljb+0H9wQyZsOmA9iFgVuZDR68H5Ljb+0H9wQyZsOmA9iFgVuZDR68H5Ljb+0H9wQyZsOmA9iFgVuZDR68H5Ljb+0H9wQyZsOmA9iFgVuZDR68H5Ljb+0H9wQyZsOmA9iFgVuZDR68H5Ljb+0H9wQyZsOmA9iFgVuZDR68H5Ljb+0H9wQyZsOmA9iNSp/8R+lTsfSp2Kxmy56qGvrdElQvpU7H0qdh6Lor1QMfU6bTp/Sp2PpU7D21Wl1GjDPWSQq/0qdj6VOw5NdolaJ/hr//xAAcEQACAwEBAQEAAAAAAAAAAAACMQABEDAREnD/2gAIAQMBAT8B/Axr2fGDXs+JcqvZ8S68lT4hV52DLgPCcF4bgvDfYMuA8JwXhuC8N9gy4DwnBeG4Lw32DLgPCcF4bgvDfYMuA8JwXhuC8N55fQMuA8JwXhuC8N6fMMuA8JwXhuC8N6fMMuA8JwXhuC8N6fMMuA8JwXhuC8N9gy4DwnBeG4Lw32DLgPCcF4bgvDfYMuA8JwXhuC8N9gy4DwnBeG4Lw32q/J95V+T7lyr8n3Lv2VPuXfv4L//EACkRAAAEBQIGAwEBAAAAAAAAAAABAgUDBBAzcTI0ERIVMDFRExRSQnD/2gAIAQIBAT8B/wADnZs5fhwLjxHWD/IQfMkjE5M/XRzEQ6wf5ECJ8iCV7EzG+GGax1g/yJWP80PmEaJ8aDV6HWD/ACJOZ+wk1GXeePCaQdBB2slmknZSHHbnRs25CbsKxRotH3njwmkHQQdrJZpJ2Uhx250bNuQm7CsUaLR57zx4TSDoIO1ks0k7KQ47c6Nm3ITdhWKNFo89548JpB0EHayWaSdlIcdudGzbkJuwrFGi0ee88eE0g6CDtZLNJOykOO3OjZtyE3YVijRaPNPsQv0QTESvSfHtvHhNIOgg7WSzSTspDjtzo2bchN2FYo0WjyImk6M/9dt48JpB0EHayWaSdlIcdudGzbkJuwrFGi0eRE0nRn/rtvHhNIOgg7WSzSTspDjtzo2bchN2FYo0WjyImkxwMM/9dt48JpB0EHayWaSdlIcdudGzbkJuwrFGi0eacO48eE0g6CDtZLNJOykOO3OjZtyE3YVijRaPPeePCaQdBB2slmknZSHHbnRs25CbsKxRotHnvPHhNIOgg7WSzSTspDjtzo2bchN2FYo0Wjz3njwmkHQQdrJZpJ2Uhx250bNuQm7CsUaLR96alCmOHE/A6Qj2ElylwEzLlMI5TMdIR7EKH8aCT6EeCUZBoMdIR7EvBKCjlIRYfyJNPsdIR7EtLFLp4Ef+C//EADIQAAAEBAQGAQIGAwEAAAAAAAECBBADcXOxQHKywQARNIKDkxIxQRMhMlGQkRRDYZL/2gAIAQEABj8C/gB6WN/4HjpY/rHjpY/rHgSmAQEPqAv8iQIpij9wIPHSx/WPHSx/WPHxiEMQf2MHJx/ChHPy+vxLz46WP6x46WP6x45xYMQmYvJ/jDIY4/sUOfHSx/WPHSx/WPHyOnilKH3Eg42HlB1lY13Td2oXhUAuZ1ky7unqbP4zOqkFwxsPKDrKxrum7tQvDoBczrJl3dPU2fxmdVILhjYeUHWVjXdN3aheHQC5nWTLu6eps/jM6qQXDGw8oOsrGu6bu1C8OgFzOsmXd09TZ/GZ1UguGNh5QdZWNd03dqF4dALmdZMu7p6mz+MzqpBcMbDyg6ysa7pu7ULw6AXM6yZd3T1Nn8ZnVSC4Y2HlB1lY13Td2oXh0AuZ1ky7unqbP4zOqkFwxsPKDrKxrum7tQvDoBczrJl3dPU2fxmdVILhjYeUHWVjXdN3aheHQC5nWTLu6eps/jM6qQXDGw8oOsrGu6bu1C8OgFzOsmXd09TZ/GZ1UguGNh5QdZWNd03dqF4dALmdZMu7p6mz+MzqpBcHLDIHM5h5AH/eOiP/AGHHRH/sOOiP/YYeHlB1lY13Td2oXh0AuZ1ky7unqbP4zOqkFwdHXJqxUPKDrKxrum7tQvDoBczrJl3dPU2fxmdVILg6OuTVioeUHWVjXdN3aheHQC5nWTLu6eps/jM6qQXB0dcmrFQ8oOsrGu6bu1C8OgFzOsmXd09TZ/GZ1UguDo65NWKh5QdZWNd03dqF4dALmdZMu7p6mz+MzqpBcHR1yasVDyg6ysa7pu7ULw6AXM6yZd3T1Nn8ZnVSC4Ojrk1YqHlB1lY13Td2oXh0AuZ1ky7unqbP4zOqkFwxsPKDrKxrum7tQvDoBczrJl3dPU2fxmdVILhjYeUHWVjXdN3aheHQC5nWTLu6eps/jM6qQXDGw8oOsrGu6bu1C8OgFzOsmXd09TZ/GZ1UguGNh5QdZWNd03dqF4dALmdZMu7p6mz+MzqpBcMbDyg6ysa7pu7ULw6AXM6yZd3T1Nn8ZnVSC4Y2HlB1lY13Td2oXh0AuZ1ky7unqbP4zOqkFwxsPKDrKxrum7tQvDoBczrJl3dPU2fxmdVILhjYeUHWVjXdN3aheHQC5nWTLu6eps/jM6qQXDGw8oOsrGu6bu1C8OgFzOsmXd09TZ/GZ1UguGNIAr0v6Q/2hx16X3F469L7i8KjkMBijGMICH3/ADdPDiq08M4fLmU0QAH9Q8del9xeOvS+4vEM0CNDil/BAOZDc/uLqv8AIUQoXMS8vmcA5/Xjr0vuLx16X3F4gFgKYMUQifn8DgP2f5xopIZfwx/M5uQcdel9xeOvS+4vCmHCWJznEA5FLEAR+ofwbf/EACcQAAEEAAYCAQUBAAAAAAAAAPABEDFRABEwUKHBIEAhQXGBkJFh/9oACAEBAAE/If0AosmaKopRg46wcdYVgtkgyVFdOx0VEX84OOsHHWM0PpnmVZfl0VVuGT+YOOsHHWEIgV+EVTN/X+tmcwrjBx1g46wu52IiJ7pqnJ20T1wOnc26Io2C8apy9tE98Tp3NujKNgvGqcvbRPfE6dzboyjYLxqnL20T3xOnc26Mo2C8apy9tE98Tp3NujKNgvGqcvbRPfE6dzboyjYLxqnL20T3xOnc26Mo2C8apy9tE98Tp3NujKNgvGqcvbRPfE6dzboyjYLxqnL20T3xOnc26Mo2C8apy9tE98Tp3NujKPK8rfS031UuSJgD7wB94Eu/XNU5e2ie+J07m3RlHleL09o1Tl7aJ74nTubdGUeV4vT2jVOXtonvidO5t0ZR5Xi9PaNU5e2ie+J07m3RlHleL09o1Tl7aJ74nTubdGUeV4vT2jVOXtonvidO5t0ZR5Xi9PaNU5e2ie+J07m3RlGwXjVOXtonvidO5t0ZRsF41Tl7aJ74nTubdGUbBeNU5e2ie+J07m3RlGwXjVOXtonvidO5t0ZRsF41Tl7aJ74nTubdGUbBeNU5e2ie+J07m3RlGwXjVOXtonvidO5t0ZRsF41Tl7aJ74nTubdGUbBeNU5e2ie+J07m3RlGwXkrBUzEWv74PO8HneFfXr5ojN8or/GjGc+aFXB53g87wl0CxIlFjzR0bV62UM8HneDzvC4oioVUT7FdC5LuUzvj6rg87wed4z4Cwz/JF/Rt/9oADAMBAAIAAwAAABDzzzzzzzzzzzzzzzzzzzzzzzzzzzzzzzzzzzzzzzzzzzzzzzzzzzzzzzzzzzzzzzzzzzzzzzzzzzzzzzzzzzzzzzzzzzzzzzzzzzzzzzzzzzzzzzzzzzzzzzzzzzzzzzzzzyrPW/HyjHanHfzzzzzzzzzzzzyoBfwD6oJWkBbzzzzzzzzzzzzyoBfwD6oJWkBbzzzzzzzzzzzzyoBfwD6oJWkBbzzzzzzzzzzzzyoBfwD6oJWkBbzzzzzzzzzzzzyoBfwD6oJWkBbrz3zzzzzzzzzyoBfwD6oJWkBb8JTzzzzzzzzzyoBfwD6oJWkBb8BbzzzzzzzzzyoBfwD6oJWkBb8BTzzzzzzzzzyoBfwD6oJWkBbz77zzzzzzzzzyoBfwD6oJWkBbzzzzzzzzzzzzyoBfwD6oJWkBbzzzzzzzzzzzzyoBfwD6oJWkBbzzzzzzzzzzzzyoBfwD6oJWkBbzzzzzzzzzzzzy316//wB+/wDr/wB3zzzzzzzzzzzzzzzzzzzzzzzzzzzzzzzzzzzzzzzzzzzzzzzzzzzzzzzzzzzzzzzzzzzzzzzzzzzzzzzzzzzzzzzzzzzzzzzzzzzzzzzzzzzzzzzzzzzzzzzzzzzzzzzzzzzz/8QAIBEAAgICAwADAQAAAAAAAAAAEDEAEQFBMEBRICFwYf/aAAgBAwEBPxD8EdfZn6zLVSvswrNS5Ur7LlTC81K+y3XNuGMyLIjoW4YzIsiOhbhjMiyI6FuGMyLIjoW4YzIsiPhfwmcZw+PcMZkWRBsMa8e4YzIsiDYY149wxmRZEGwxrx7hjMiyI6FuGMyLIjoW4YzIsiOhbhjMiyI6FuGMyLIjo3v5M/cvXL+TK83LFy/ksXMqzcv5L1/gv//EACgRAAEEAQQBAwUBAQAAAAAAAAEAEaGxEDAxYcHwUZHhIUFwgdFx8f/aAAgBAgEBPxD8BgT3D7+jf1D0Xv8AC5RAKIF45aCelwvf4RD4Zjo4wOzfT/Sy4Xv8IgjDO8Ig0Ox1wvf4RWQYtX91rPSG6hilEUcRlVsYkG1MYl9DWs9IbqGKURRxGVWxiQbUxjxuBrWekN1DFKIo4jKrYxINqYx43A1rPSG6hilEUcRlVsYkG1MY8bga1npDdQxSiKOIyq2MSDamMeNwESAHK/6A/qemGehB07PSG6hilEUcRlVsYkG1MY8bgKEaR3W39e9Oz0huoYpRFHEZVbGJBtTGPG4CjGkd1t/XvTs9IbqGKURRxGVWxiQbUxjxuAoRpFzZAQH8d6dnpDdQxSiKOIyq2MSDamMeNwMM9EABp2ekN1DFKIo4jKrYxINqYx43A1rPSG6hilEUcRlVsYkG1MY8bga1npDdQxSiKOIyq2MSDamMeNwNaz0huoYpRFHEZVbGJBtTGJfQ1hYGH1bcsh6uE2j9gyCGjF4I7XPhCElwDI5DAtBdc+EFGcB5QCpYAy58I8eOXr8C/wD/xAAjEAEAAQQDAAICAwAAAAAAAAABUQARMPAQIVAxQGGQQXGB/9oACAEBAAE/EP0AnzRcRxOSpU6ITALpEex5vX+65mzYFnsT/OVSoIMBQEpewG3T3+OShaBd3+L2Nvh5VKm0PZcoEF+ejzvSg+WwW3KpV2LA7xrdqWO/u7CGe98i27WfheaithDPO+5LdrPwrNRWwhnnfclu1n4VmorYQzzvuS3az8KzUVsIZ533JbtZ+FZqK2EM877kt2s/Cs1FbCGed9yW7WfhWaithDPO+5LdrPwrNRWwhnnfclu1n4VmorYQzzvuS3az8KzUVsIZ533JbtZ4bNT31eBKBfrtQ+yZMuythDPO+5LdrPLZqAv1SthDPO+5LdrPLZqAv1SthDPO+5LdrPLZqAv1SthDPO+5LdrPLZqAv1SthDPO+5LdrPLZqAv1SthDPO+5LdrPwrNQErYQzzvuS3az8KzUVsIZ533JbtZ+FZqK2EM877kt2s/Cs1FbCGed9yW7WfhWaithDPO+5LdrPwrNRWwhnnfclu1n4VmorYQzzvuS3az8KzUVsIZ533JbtZ+FZqK2EM877kt2s/Cs1FbCGed9yW7Wfh2aiA9A0QXE5mTJvRAusA6RP5OflWkhxXAlxH+k5MmQfOzqqlS9kbfk5dJqFQXO0va58TyZM3JGtlC6NYvz8v8AbgdC4F3kyZJjiwojZC9C9R+jb//Z;shadow=1;whiteSpace=wrap;html=1;" parent="1" vertex="1">
          <mxGeometry x="810" y="270" width="80" height="80" as="geometry" />
        </mxCell>
        <mxCell id="dGmgLIXejYUsXcEqvrMx-8" value="" style="shape=image;verticalLabelPosition=bottom;labelBackgroundColor=default;verticalAlign=top;aspect=fixed;imageAspect=0;editableCssRules=.*;image=data:image/svg+xml,PHN2ZyB4bWxuczp4bGluaz0iaHR0cDovL3d3dy53My5vcmcvMTk5OS94bGluayIgeG1sbnM9Imh0dHA6Ly93d3cudzMub3JnLzIwMDAvc3ZnIiB3aWR0aD0iMjU2IiB2aWV3Qm94PSIwIDAgMjU2IDI1NiIgcHJlc2VydmVBc3BlY3RSYXRpbz0ieE1pZFlNaWQiIGhlaWdodD0iMjU2Ij48cmFkaWFsR3JhZGllbnQgcj0iMTIwLjExNTY5NyUiIGdyYWRpZW50VHJhbnNmb3JtPSJtYXRyaXgoLjgzMjUzMSAwIDAgLjgzMjUzMSAwIC4xNjc0NjkpIiBjeT0iOTkuOTk5OTk0JSIgY3g9Ii4wMDAwMTYlIiBpZD0iYSI+PHN0b3Agc3RvcC1jb2xvcj0iIzAwYzgxMiIgb2Zmc2V0PSIwIi8+PHN0b3Agc3RvcC1jb2xvcj0iIzAwNmUwMCIgb2Zmc2V0PSIxIi8+PC9yYWRpYWxHcmFkaWVudD48cmFkaWFsR3JhZGllbnQgcj0iMTIwLjExNTY5NyUiIGdyYWRpZW50VHJhbnNmb3JtPSJtYXRyaXgoMCAuODMyNTM0IC0uODMyNTMxIDAgLS4wMDAwMDMgLS4wMDAwMDQpIiBjeT0iLS4wMDAzODUlIiBjeD0iLjAwMDAwNiUiIGlkPSJiIj48c3RvcCBzdG9wLWNvbG9yPSIjNTZhZmZkIiBvZmZzZXQ9IjAiLz48c3RvcCBzdG9wLWNvbG9yPSIjMDRhM2ZmIiBvZmZzZXQ9IjEiLz48L3JhZGlhbEdyYWRpZW50PjxyYWRpYWxHcmFkaWVudCByPSIxMjAuMTE1Njk3JSIgZ3JhZGllbnRUcmFuc2Zvcm09Im1hdHJpeCgtLjgzMjUzMSAwIDAgLS44MzI1MzEgMS44MzI1MzEgMCkiIGN5PSIuMDAwMDA2JSIgY3g9Ijk5Ljk5OTk4NCUiIGlkPSJjIj48c3RvcCBzdG9wLWNvbG9yPSIjZGYxZjAwIiBvZmZzZXQ9IjAiLz48c3RvcCBzdG9wLWNvbG9yPSIjNTYwZDAwIiBvZmZzZXQ9IjEiLz48L3JhZGlhbEdyYWRpZW50PjxyYWRpYWxHcmFkaWVudCByPSIxMjAuMTE1Njk3JSIgZ3JhZGllbnRUcmFuc2Zvcm09Im1hdHJpeCgwIC0uODMyNTM2IC44MzI1MzEgMCAuMTY3NDYzIDEuODMyNTQzKSIgY3k9IjEwMC4wMDA2OTQlIiBjeD0iOTkuOTk5OTk0JSIgaWQ9ImQiPjxzdG9wIHN0b3AtY29sb3I9IiMwMGZmZmQiIG9mZnNldD0iMCIvPjxzdG9wIHN0b3AtY29sb3I9IiMwMGRhZmYiIG9mZnNldD0iMSIvPjwvcmFkaWFsR3JhZGllbnQ+PHJhZGlhbEdyYWRpZW50IHI9Ijk5Ljk5OTY0JSIgZ3JhZGllbnRUcmFuc2Zvcm09Im1hdHJpeCgxIDAgMCAxLjAwMDAwMzUyIDAgLS4wMDAwMDQpIiBjeT0iOTkuOTk5OTk0JSIgY3g9Ii4wMDAzNTUlIiBpZD0iZSI+PHN0b3Agc3RvcC1jb2xvcj0iIzAwODIwMCIgb2Zmc2V0PSIwIi8+PHN0b3Agc3RvcC1jb2xvcj0iIzAwNzUwMCIgb2Zmc2V0PSIxIi8+PC9yYWRpYWxHcmFkaWVudD48cmFkaWFsR3JhZGllbnQgcj0iOTkuOTk5OTA0JSIgZ3JhZGllbnRUcmFuc2Zvcm09Im1hdHJpeCgwIDEgLTEuMDAwMDAwMDMgMCAuMDAwMDAxIC4wMDAwMDEpIiBjeT0iLjAwMDA5MSUiIGN4PSIuMDAwMDA2JSIgaWQ9ImYiPjxzdG9wIHN0b3AtY29sb3I9IiMzMTY2ZDQiIG9mZnNldD0iMCIvPjxzdG9wIHN0b3AtY29sb3I9IiMxYTUwOWUiIG9mZnNldD0iMSIvPjwvcmFkaWFsR3JhZGllbnQ+PHJhZGlhbEdyYWRpZW50IHI9IjEwMC4wMDAzNSUiIGdyYWRpZW50VHJhbnNmb3JtPSJtYXRyaXgoLTEgMCAwIC0uOTk5OTk2NTQgMi4wMDAwMDggMCkiIGN5PSIuMDAwMDA2JSIgY3g9IjEwMC4wMDAzNTUlIiBpZD0iZyI+PHN0b3Agc3RvcC1jb2xvcj0iIzhlMTQwMCIgb2Zmc2V0PSIwIi8+PHN0b3Agc3RvcC1jb2xvcj0iIzRiMGIwMCIgb2Zmc2V0PSIxIi8+PC9yYWRpYWxHcmFkaWVudD48cmFkaWFsR3JhZGllbnQgcj0iOTkuOTk5MzMzJSIgZ3JhZGllbnRUcmFuc2Zvcm09Im1hdHJpeCgwIC0xIDEuMDAwMDA3MDEgMCAtLjAwMDAxNyAyLjAwMDAxKSIgY3k9IjEwMC4wMDEwNDIlIiBjeD0iOTkuOTk5OTk0JSIgaWQ9ImgiPjxzdG9wIHN0b3AtY29sb3I9IiMwMDkwYzQiIG9mZnNldD0iMCIvPjxzdG9wIHN0b3AtY29sb3I9IiMwMDVkOGMiIG9mZnNldD0iMSIvPjwvcmFkaWFsR3JhZGllbnQ+PHJhZGlhbEdyYWRpZW50IHI9Ijk5Ljk5OTk5MiUiIGdyYWRpZW50VHJhbnNmb3JtPSJtYXRyaXgoMSAwIDAgLjk5OTk4NjAzIDAgLjAwMDAxNCkiIGN5PSI5OS45OTg5MDIlIiBjeD0iMCUiIGlkPSJpIj48c3RvcCBzdG9wLWNvbG9yPSIjMDBjZDFjIiBvZmZzZXQ9IjAiLz48c3RvcCBzdG9wLWNvbG9yPSIjMDBlOTUwIiBvZmZzZXQ9IjEiLz48L3JhZGlhbEdyYWRpZW50PjxyYWRpYWxHcmFkaWVudCByPSI5OS45OTk5OTIlIiBncmFkaWVudFRyYW5zZm9ybT0ibWF0cml4KDAgMSAtMS4wMDAwMDA3NiAwIDAgMCkiIGN5PSItLjAwMDAxMiUiIGN4PSItLjAwMDAwNyUiIGlkPSJqIj48c3RvcCBzdG9wLWNvbG9yPSIjYjFjOGZkIiBvZmZzZXQ9IjAiLz48c3RvcCBzdG9wLWNvbG9yPSIjN2VjM2ZkIiBvZmZzZXQ9IjEiLz48L3JhZGlhbEdyYWRpZW50PjxyYWRpYWxHcmFkaWVudCByPSI5OS45OTk5OTIlIiBncmFkaWVudFRyYW5zZm9ybT0ibWF0cml4KC0xIDAgMCAtMS4wMDAwMDA3NiAyIDApIiBjeT0iLS4wMDAwMDclIiBjeD0iOTkuOTk5OTg3JSIgaWQ9ImsiPjxzdG9wIHN0b3AtY29sb3I9IiNlMTJhMDAiIG9mZnNldD0iMCIvPjxzdG9wIHN0b3AtY29sb3I9IiNiNjJmMDAiIG9mZnNldD0iMSIvPjwvcmFkaWFsR3JhZGllbnQ+PHJhZGlhbEdyYWRpZW50IHI9Ijk5Ljk5ODM2NCUiIGdyYWRpZW50VHJhbnNmb3JtPSJtYXRyaXgoMCAtMSAxLjAwMDAxNjk1IDAgLS4wMDAwMTcgMikiIGN5PSIxMDAlIiBjeD0iMTAwLjAwMDAwNyUiIGlkPSJsIj48c3RvcCBzdG9wLWNvbG9yPSIjMDBiNmRkIiBvZmZzZXQ9IjAiLz48c3RvcCBzdG9wLWNvbG9yPSIjMGZmIiBvZmZzZXQ9IjEiLz48L3JhZGlhbEdyYWRpZW50PjxwYXRoIGZpbGw9InVybCgjYSkiIGQ9Im0xNzkuMiAyMzAuNGg3Ni44bC0xMjIuODgtMTAyLjRjLTEuNjg3IDM3LjE5MyAxNC42ODcgNzMuNTggNDYuMDggMTAyLjQiLz48cGF0aCBmaWxsPSJ1cmwoI2IpIiBkPSJtMjUuNiAxNzkuMnY3Ni44bDEwMi40LTEyMi44OGMtMS43NDYtLjA3OS0zLjQ4My0uMTE4LTUuMjI1LS4xMTgtMzUuMzYuMDAyLTY5LjcwOCAxNi4yNzktOTcuMTc1IDQ2LjE5OCIvPjxwYXRoIGZpbGw9InVybCgjYykiIGQ9Im0wIDI1LjYgMTIyLjg4IDEwMi40YzEuNjg3LTM3LjE5Mi0xNC42ODctNzMuNTgtNDYuMDgtMTAyLjR6Ii8+PHBhdGggZmlsbD0idXJsKCNkKSIgZD0ibTIzMC40IDAtMTAyLjQgMTIyLjg3OWMzNy4xOTMgMS42ODggNzMuNTgtMTQuNjg3IDEwMi40LTQ2LjA4eiIvPjxwYXRoIGZpbGw9InVybCgjZSkiIGQ9Im0xMjggMTI4Yy0xMS40NzkgMjkuNzU1LTkuNzQ1IDYwLjA4NiA1LjEyIDg5LjYwMSAxNS4zNiA3LjY3OSAyOC4xNiAxMi43OTkgNDYuMDggMTIuNzk5LTMxLjM5My0yOC44Mi00Ny43NjctNjUuMjA3LTQ2LjA4LTEwMi40eiIvPjxwYXRoIGZpbGw9InVybCgjZikiIGQ9Im0zOC40IDEzMy4xMmMtNy42NzkgMTUuMzYxLTEyLjggMjguMTYtMTIuOCA0Ni4wOCAyOC44MTktMzEuMzkzIDY1LjIwNy00Ny43NjYgMTAyLjQtNDYuMDh2LTUuMTJjLTEyLjk0NC00Ljk5My0yNS45OTQtNy40ODYtMzkuMDQtNy40ODYtMTYuOTQ2LjAwMS0zMy44ODQgNC4yMDctNTAuNTYgMTIuNjA2Ii8+PHBhdGggZmlsbD0idXJsKCNnKSIgZD0ibTEyMi44OCAxMjhoNS4xMmMxMS40NzgtMjkuNzU1IDkuNzQ1LTYwLjA4Ny01LjEyLTg5LjYtMTUuMzYtNy42OC0yOC4xNTktMTIuOC00Ni4wOC0xMi44IDMxLjM5MyAyOC44MiA0Ny43NjcgNjUuMjA4IDQ2LjA4IDEwMi40Ii8+PHBhdGggZmlsbD0idXJsKCNoKSIgZD0ibTEyOCAxMjIuODc5djUuMTIxYzI5Ljc1NSAxMS40NzggNjAuMDg2IDkuNzQ0IDg5LjYtNS4xMjEgNy42OC0xNS4zNTggMTIuOC0yOC4xNTggMTIuOC00Ni4wOC0yOC44MiAzMS4zOTMtNjUuMjA3IDQ3Ljc2OC0xMDIuNCA0Ni4wOCIvPjxwYXRoIGZpbGw9InVybCgjaSkiIGQ9Im03MS42OCAxNjYuNCA2MS40NCA1MS4yMDFjLTE0Ljg2NS0yOS41MTUtMTYuNTk5LTU5Ljg0Ni01LjEyLTg5LjYwMS0xLjc3Ni0uNTkyLTMuODU4LS44NzYtNi4xNTgtLjg3Ni0xNy41OTkuMDAxLTQ3Ljg5OCAxNi42MzUtNTAuMTYyIDM5LjI3NiIvPjxwYXRoIGZpbGw9InVybCgjaikiIGQ9Im0zOC40IDEzMy4xMmMyOS41MTQtMTQuODY1IDU5Ljg0NS0xNi41OTggODkuNi01LjEyIDUuMTItMTUuMzU5LTEyLjgtNTMuNzYtMzguNC01Ni4zMnoiLz48cGF0aCBmaWxsPSJ1cmwoI2spIiBkPSJtMTI4IDEyOGMxNS4zNiA1LjEyIDUzLjc1OS0xMi44IDU2LjMyLTM4LjRsLTYxLjQ0LTUxLjJjMTQuODY1IDI5LjUxMyAxNi41OTggNTkuODQ1IDUuMTIgODkuNiIvPjxwYXRoIGZpbGw9InVybCgjbCkiIGQ9Im0xMjggMTI4Yy01LjEyIDE1LjM2MSAxMi44IDUzLjc2IDM4LjQgNTYuMzJsNTEuMi02MS40NDFjLTI5LjUxNCAxNC44NjUtNTkuODQ1IDE2LjU5OS04OS42IDUuMTIxIi8+PHBhdGggZD0ibTEyNy45OTk4IDEyMS42MDA0YzMuNTM1IDAgNi40IDIuODY1IDYuNCA2LjM5OSAwIDMuNTM2LTIuODY1IDYuNDAxLTYuNCA2LjQwMS0zLjUzNCAwLTYuMzk5LTIuODY1LTYuMzk5LTYuNDAxIDAtMy41MzQgMi44NjUtNi4zOTkgNi4zOTktNi4zOTkiLz48L3N2Zz4=;" parent="1" vertex="1">
          <mxGeometry x="-130" y="100" width="60" height="60" as="geometry" />
        </mxCell>
        <mxCell id="dGmgLIXejYUsXcEqvrMx-10" value="&lt;font style=&quot;font-size: 14px;&quot;&gt;&lt;b&gt;Private Link&lt;/b&gt;&lt;/font&gt;" style="text;html=1;align=center;verticalAlign=middle;rounded=0;fontFamily=Architects Daughter;fontSource=https%3A%2F%2Ffonts.googleapis.com%2Fcss%3Ffamily%3DArchitects%2BDaughter;whiteSpace=wrap;fontColor=#4D6888;" parent="1" vertex="1">
          <mxGeometry x="580" y="350" width="80" height="30" as="geometry" />
        </mxCell>
        <mxCell id="dGmgLIXejYUsXcEqvrMx-12" value="" style="sketch=0;points=[[0,0,0],[0.25,0,0],[0.5,0,0],[0.75,0,0],[1,0,0],[0,1,0],[0.25,1,0],[0.5,1,0],[0.75,1,0],[1,1,0],[0,0.25,0],[0,0.5,0],[0,0.75,0],[1,0.25,0],[1,0.5,0],[1,0.75,0]];outlineConnect=0;fontColor=#232F3E;fillColor=#002855;strokeColor=#ffffff;dashed=0;verticalLabelPosition=bottom;verticalAlign=top;align=center;html=1;fontSize=12;fontStyle=0;aspect=fixed;shape=mxgraph.aws4.resourceIcon;resIcon=mxgraph.aws4.s3;shadow=1;fontFamily=Helvetica;" parent="1" vertex="1">
          <mxGeometry x="-990" y="50" width="78" height="78" as="geometry" />
        </mxCell>
        <mxCell id="dGmgLIXejYUsXcEqvrMx-13" value="" style="sketch=0;points=[[0,0,0],[0.25,0,0],[0.5,0,0],[0.75,0,0],[1,0,0],[0,1,0],[0.25,1,0],[0.5,1,0],[0.75,1,0],[1,1,0],[0,0.25,0],[0,0.5,0],[0,0.75,0],[1,0.25,0],[1,0.5,0],[1,0.75,0]];outlineConnect=0;fontColor=#232F3E;fillColor=#002855;strokeColor=#ffffff;dashed=0;verticalLabelPosition=bottom;verticalAlign=top;align=center;html=1;fontSize=12;fontStyle=0;aspect=fixed;shape=mxgraph.aws4.resourceIcon;resIcon=mxgraph.aws4.s3;shadow=1;fontFamily=Helvetica;" parent="1" vertex="1">
          <mxGeometry x="-990" y="410" width="78" height="78" as="geometry" />
        </mxCell>
        <mxCell id="dGmgLIXejYUsXcEqvrMx-14" value="" style="points=[[0,0,0],[0.25,0,0],[0.5,0,0],[0.75,0,0],[1,0,0],[0,1,0],[0.25,1,0],[0.5,1,0],[0.75,1,0],[1,1,0],[0,0.25,0],[0,0.5,0],[0,0.75,0],[1,0.25,0],[1,0.5,0],[1,0.75,0]];outlineConnect=0;fontColor=#232F3E;fillColor=#002855;strokeColor=#ffffff;dashed=0;verticalLabelPosition=bottom;verticalAlign=top;align=center;html=1;fontSize=12;fontStyle=0;aspect=fixed;shape=mxgraph.aws4.resourceIcon;resIcon=mxgraph.aws4.vpc;shadow=1;whiteSpace=wrap;sketch=0;fontFamily=Helvetica;" parent="1" vertex="1">
          <mxGeometry x="-870" y="560" width="78" height="78" as="geometry" />
        </mxCell>
        <mxCell id="dGmgLIXejYUsXcEqvrMx-15" value="&lt;b style=&quot;&quot;&gt;&lt;font style=&quot;font-size: 16px;&quot;&gt;SHQ VPC&lt;/font&gt;&lt;/b&gt;" style="text;html=1;align=center;verticalAlign=middle;rounded=0;fontFamily=Architects Daughter;fontSource=https%3A%2F%2Ffonts.googleapis.com%2Fcss%3Ffamily%3DArchitects%2BDaughter;whiteSpace=wrap;fontColor=#4D6888;" parent="1" vertex="1">
          <mxGeometry x="-870" y="640" width="80" height="50" as="geometry" />
        </mxCell>
        <mxCell id="dGmgLIXejYUsXcEqvrMx-21" style="edgeStyle=orthogonalEdgeStyle;rounded=1;orthogonalLoop=1;jettySize=auto;html=1;exitX=0.5;exitY=1;exitDx=0;exitDy=0;shadow=1;hachureGap=4;strokeColor=#545B64;align=center;verticalAlign=middle;fontFamily=Helvetica;fontSize=11;fontColor=default;labelBackgroundColor=default;elbow=vertical;startArrow=none;startFill=0;endArrow=block;endFill=1;flowAnimation=1;curved=0;entryX=1;entryY=0.5;entryDx=0;entryDy=0;entryPerimeter=0;" parent="1" source="dGmgLIXejYUsXcEqvrMx-17" target="dGmgLIXejYUsXcEqvrMx-13" edge="1">
          <mxGeometry relative="1" as="geometry">
            <Array as="points">
              <mxPoint x="-360" y="370" />
              <mxPoint x="-550" y="370" />
              <mxPoint x="-550" y="450" />
            </Array>
          </mxGeometry>
        </mxCell>
        <mxCell id="dGmgLIXejYUsXcEqvrMx-17" value="&lt;font style=&quot;color: rgb(82, 181, 255); font-size: 14px;&quot;&gt;Extract&lt;/font&gt;" style="shape=process;whiteSpace=wrap;html=1;backgroundOutline=1;fillColor=#E6F4FF;" parent="1" vertex="1">
          <mxGeometry x="-420" y="280" width="120" height="60" as="geometry" />
        </mxCell>
        <mxCell id="dGmgLIXejYUsXcEqvrMx-18" value="&lt;font style=&quot;color: rgb(82, 181, 255); font-size: 14px;&quot;&gt;Transform&lt;/font&gt;" style="shape=process;whiteSpace=wrap;html=1;backgroundOutline=1;fillColor=#E6F4FF;" parent="1" vertex="1">
          <mxGeometry x="-140" y="280" width="120" height="60" as="geometry" />
        </mxCell>
        <mxCell id="dGmgLIXejYUsXcEqvrMx-24" style="edgeStyle=orthogonalEdgeStyle;rounded=1;orthogonalLoop=1;jettySize=auto;html=1;exitX=1;exitY=0.5;exitDx=0;exitDy=0;exitPerimeter=0;shadow=1;strokeColor=#545B64;align=center;verticalAlign=middle;fontFamily=Helvetica;fontSize=11;fontColor=default;labelBackgroundColor=default;endArrow=classic;flowAnimation=1;curved=0;" parent="1" source="dGmgLIXejYUsXcEqvrMx-4" target="dGmgLIXejYUsXcEqvrMx-6" edge="1">
          <mxGeometry relative="1" as="geometry" />
        </mxCell>
        <mxCell id="dGmgLIXejYUsXcEqvrMx-19" value="&lt;font style=&quot;color: rgb(82, 181, 255); font-size: 14px;&quot;&gt;Load&lt;/font&gt;" style="shape=process;whiteSpace=wrap;html=1;backgroundOutline=1;fillColor=#E6F4FF;" parent="1" vertex="1">
          <mxGeometry x="140" y="280" width="120" height="60" as="geometry" />
        </mxCell>
        <mxCell id="dGmgLIXejYUsXcEqvrMx-22" style="edgeStyle=orthogonalEdgeStyle;rounded=1;orthogonalLoop=1;jettySize=auto;html=1;exitX=0;exitY=0.5;exitDx=0;exitDy=0;entryX=1;entryY=0.75;entryDx=0;entryDy=0;entryPerimeter=0;shadow=1;hachureGap=4;strokeColor=#545B64;align=center;verticalAlign=middle;fontFamily=Helvetica;fontSize=11;fontColor=default;labelBackgroundColor=default;elbow=vertical;startArrow=block;startFill=1;endArrow=block;endFill=1;flowAnimation=1;curved=0;" parent="1" source="dGmgLIXejYUsXcEqvrMx-18" target="dGmgLIXejYUsXcEqvrMx-13" edge="1">
          <mxGeometry relative="1" as="geometry">
            <Array as="points">
              <mxPoint x="-180" y="310" />
              <mxPoint x="-180" y="370" />
              <mxPoint x="-550" y="370" />
              <mxPoint x="-550" y="469" />
            </Array>
          </mxGeometry>
        </mxCell>
        <mxCell id="dGmgLIXejYUsXcEqvrMx-23" style="edgeStyle=orthogonalEdgeStyle;rounded=1;orthogonalLoop=1;jettySize=auto;html=1;exitX=0;exitY=0.5;exitDx=0;exitDy=0;entryX=1;entryY=0.25;entryDx=0;entryDy=0;entryPerimeter=0;shadow=1;hachureGap=4;strokeColor=#545B64;align=center;verticalAlign=middle;fontFamily=Helvetica;fontSize=11;fontColor=default;labelBackgroundColor=default;elbow=vertical;startArrow=block;startFill=1;endArrow=block;endFill=1;flowAnimation=1;curved=0;" parent="1" source="dGmgLIXejYUsXcEqvrMx-19" target="dGmgLIXejYUsXcEqvrMx-13" edge="1">
          <mxGeometry relative="1" as="geometry">
            <Array as="points">
              <mxPoint x="100" y="310" />
              <mxPoint x="100" y="370" />
              <mxPoint x="-550" y="370" />
              <mxPoint x="-550" y="430" />
            </Array>
          </mxGeometry>
        </mxCell>
        <mxCell id="dGmgLIXejYUsXcEqvrMx-26" value="&lt;b style=&quot;&quot;&gt;&lt;font style=&quot;font-size: 16px;&quot;&gt;ClickHouse Cloud Prod&lt;/font&gt;&lt;/b&gt;" style="text;html=1;align=center;verticalAlign=middle;rounded=0;fontFamily=Architects Daughter;fontSource=https%3A%2F%2Ffonts.googleapis.com%2Fcss%3Ffamily%3DArchitects%2BDaughter;whiteSpace=wrap;fontColor=#4D6888;" parent="1" vertex="1">
          <mxGeometry x="810" y="350" width="90" height="50" as="geometry" />
        </mxCell>
        <mxCell id="dGmgLIXejYUsXcEqvrMx-27" style="edgeStyle=orthogonalEdgeStyle;rounded=1;orthogonalLoop=1;jettySize=auto;html=1;exitX=0.5;exitY=1;exitDx=0;exitDy=0;entryX=1;entryY=0.25;entryDx=0;entryDy=0;entryPerimeter=0;shadow=1;hachureGap=4;strokeColor=#545B64;align=center;verticalAlign=middle;fontFamily=Helvetica;fontSize=11;fontColor=default;labelBackgroundColor=default;elbow=vertical;startArrow=none;startFill=0;endArrow=block;endFill=1;flowAnimation=1;curved=0;" parent="1" source="dGmgLIXejYUsXcEqvrMx-28" target="dGmgLIXejYUsXcEqvrMx-12" edge="1">
          <mxGeometry relative="1" as="geometry">
            <mxPoint x="-440" y="330" as="targetPoint" />
            <Array as="points">
              <mxPoint x="-339" y="50" />
              <mxPoint x="-570" y="50" />
              <mxPoint x="-570" y="70" />
            </Array>
          </mxGeometry>
        </mxCell>
        <mxCell id="dGmgLIXejYUsXcEqvrMx-28" value="&lt;font style=&quot;color: rgb(82, 181, 255); font-size: 14px;&quot;&gt;Extract&lt;/font&gt;" style="shape=process;whiteSpace=wrap;html=1;backgroundOutline=1;fillColor=#E6F4FF;" parent="1" vertex="1">
          <mxGeometry x="-399" y="-50" width="120" height="60" as="geometry" />
        </mxCell>
        <mxCell id="dGmgLIXejYUsXcEqvrMx-29" value="&lt;font style=&quot;color: rgb(82, 181, 255); font-size: 14px;&quot;&gt;Transform&lt;/font&gt;" style="shape=process;whiteSpace=wrap;html=1;backgroundOutline=1;fillColor=#E6F4FF;" parent="1" vertex="1">
          <mxGeometry x="-119" y="-50" width="120" height="60" as="geometry" />
        </mxCell>
        <mxCell id="dGmgLIXejYUsXcEqvrMx-30" value="&lt;font style=&quot;color: rgb(82, 181, 255); font-size: 14px;&quot;&gt;Load&lt;/font&gt;" style="shape=process;whiteSpace=wrap;html=1;backgroundOutline=1;fillColor=#E6F4FF;" parent="1" vertex="1">
          <mxGeometry x="141" y="-50" width="120" height="60" as="geometry" />
        </mxCell>
        <mxCell id="dGmgLIXejYUsXcEqvrMx-31" style="edgeStyle=orthogonalEdgeStyle;rounded=1;orthogonalLoop=1;jettySize=auto;html=1;exitX=0;exitY=0.5;exitDx=0;exitDy=0;shadow=1;hachureGap=4;strokeColor=#545B64;align=center;verticalAlign=middle;fontFamily=Helvetica;fontSize=11;fontColor=default;labelBackgroundColor=default;elbow=vertical;startArrow=block;startFill=1;endArrow=block;endFill=1;flowAnimation=1;curved=0;entryX=1;entryY=0.5;entryDx=0;entryDy=0;entryPerimeter=0;" parent="1" source="dGmgLIXejYUsXcEqvrMx-29" target="dGmgLIXejYUsXcEqvrMx-12" edge="1">
          <mxGeometry relative="1" as="geometry">
            <mxPoint x="-650" y="-30" as="targetPoint" />
            <Array as="points">
              <mxPoint x="-180" y="-20" />
              <mxPoint x="-180" y="50" />
              <mxPoint x="-570" y="50" />
              <mxPoint x="-570" y="90" />
              <mxPoint x="-650" y="90" />
            </Array>
          </mxGeometry>
        </mxCell>
        <mxCell id="dGmgLIXejYUsXcEqvrMx-32" style="edgeStyle=orthogonalEdgeStyle;rounded=1;orthogonalLoop=1;jettySize=auto;html=1;exitX=0;exitY=0.5;exitDx=0;exitDy=0;shadow=1;hachureGap=4;strokeColor=#545B64;align=center;verticalAlign=middle;fontFamily=Helvetica;fontSize=11;fontColor=default;labelBackgroundColor=default;elbow=vertical;startArrow=block;startFill=1;endArrow=block;endFill=1;flowAnimation=1;curved=0;entryX=1;entryY=0.75;entryDx=0;entryDy=0;entryPerimeter=0;" parent="1" source="dGmgLIXejYUsXcEqvrMx-30" target="dGmgLIXejYUsXcEqvrMx-12" edge="1">
          <mxGeometry relative="1" as="geometry">
            <mxPoint x="-401" y="330" as="targetPoint" />
            <Array as="points">
              <mxPoint x="100" y="-20" />
              <mxPoint x="100" y="50" />
              <mxPoint x="-570" y="50" />
              <mxPoint x="-570" y="109" />
            </Array>
          </mxGeometry>
        </mxCell>
        <mxCell id="dGmgLIXejYUsXcEqvrMx-39" value="&lt;b style=&quot;&quot;&gt;&lt;font style=&quot;font-size: 16px;&quot;&gt;Web Based APIs&lt;/font&gt;&lt;/b&gt;" style="text;html=1;align=center;verticalAlign=middle;rounded=0;fontFamily=Architects Daughter;fontSource=https%3A%2F%2Ffonts.googleapis.com%2Fcss%3Ffamily%3DArchitects%2BDaughter;whiteSpace=wrap;fontColor=#4D6888;" parent="1" vertex="1">
          <mxGeometry x="-470" y="-720" width="240" height="50" as="geometry" />
        </mxCell>
        <mxCell id="79Z5ppwG9dLsAdDoF1kB-1" value="&lt;font&gt;&lt;b&gt;Tasks&lt;/b&gt;&lt;/font&gt;" style="text;html=1;align=center;verticalAlign=middle;rounded=0;fontFamily=Architects Daughter;fontSource=https%3A%2F%2Ffonts.googleapis.com%2Fcss%3Ffamily%3DArchitects%2BDaughter;whiteSpace=wrap;fontColor=#4D6888;fontSize=16;" parent="1" vertex="1">
          <mxGeometry x="-130" y="220" width="80" height="30" as="geometry" />
        </mxCell>
        <mxCell id="79Z5ppwG9dLsAdDoF1kB-2" value="&lt;font&gt;&lt;b&gt;Tasks&lt;/b&gt;&lt;/font&gt;" style="text;html=1;align=center;verticalAlign=middle;rounded=0;fontFamily=Architects Daughter;fontSource=https%3A%2F%2Ffonts.googleapis.com%2Fcss%3Ffamily%3DArchitects%2BDaughter;whiteSpace=wrap;fontColor=#4D6888;fontSize=16;" parent="1" vertex="1">
          <mxGeometry x="-110" y="-110" width="80" height="30" as="geometry" />
        </mxCell>
        <mxCell id="79Z5ppwG9dLsAdDoF1kB-3" value="&lt;font style=&quot;font-size: 14px;&quot;&gt;&lt;b&gt;Prod Account&lt;/b&gt;&lt;/font&gt;" style="text;html=1;align=center;verticalAlign=middle;rounded=0;fontFamily=Architects Daughter;fontSource=https%3A%2F%2Ffonts.googleapis.com%2Fcss%3Ffamily%3DArchitects%2BDaughter;whiteSpace=wrap;fontColor=#4D6888;" parent="1" vertex="1">
          <mxGeometry x="-990" y="540" width="80" height="30" as="geometry" />
        </mxCell>
        <mxCell id="79Z5ppwG9dLsAdDoF1kB-4" value="&lt;font style=&quot;font-size: 14px;&quot;&gt;&lt;b&gt;Dev Account&lt;/b&gt;&lt;/font&gt;" style="text;html=1;align=center;verticalAlign=middle;rounded=0;fontFamily=Architects Daughter;fontSource=https%3A%2F%2Ffonts.googleapis.com%2Fcss%3Ffamily%3DArchitects%2BDaughter;whiteSpace=wrap;fontColor=#4D6888;" parent="1" vertex="1">
          <mxGeometry x="-1000" y="190" width="80" height="30" as="geometry" />
        </mxCell>
        <mxCell id="79Z5ppwG9dLsAdDoF1kB-5" value="&lt;b style=&quot;&quot;&gt;&lt;font style=&quot;font-size: 16px;&quot;&gt;SHQ_DE_DEV&lt;/font&gt;&lt;/b&gt;" style="text;html=1;align=center;verticalAlign=middle;rounded=0;fontFamily=Architects Daughter;fontSource=https%3A%2F%2Ffonts.googleapis.com%2Fcss%3Ffamily%3DArchitects%2BDaughter;whiteSpace=wrap;fontColor=#4D6888;" parent="1" vertex="1">
          <mxGeometry x="-60" y="110" width="120" height="50" as="geometry" />
        </mxCell>
        <mxCell id="79Z5ppwG9dLsAdDoF1kB-6" value="&lt;b style=&quot;&quot;&gt;&lt;font style=&quot;font-size: 16px;&quot;&gt;SHQ_DE_PROD&lt;/font&gt;&lt;/b&gt;" style="text;html=1;align=center;verticalAlign=middle;rounded=0;fontFamily=Architects Daughter;fontSource=https%3A%2F%2Ffonts.googleapis.com%2Fcss%3Ffamily%3DArchitects%2BDaughter;whiteSpace=wrap;fontColor=#4D6888;" parent="1" vertex="1">
          <mxGeometry x="-60" y="430" width="120" height="50" as="geometry" />
        </mxCell>
        <mxCell id="79Z5ppwG9dLsAdDoF1kB-7" value="" style="points=[[0,0,0],[0.25,0,0],[0.5,0,0],[0.75,0,0],[1,0,0],[0,1,0],[0.25,1,0],[0.5,1,0],[0.75,1,0],[1,1,0],[0,0.25,0],[0,0.5,0],[0,0.75,0],[1,0.25,0],[1,0.5,0],[1,0.75,0]];outlineConnect=0;fontColor=#232F3E;fillColor=#002855;strokeColor=#ffffff;dashed=0;verticalLabelPosition=bottom;verticalAlign=top;align=center;html=1;fontSize=12;fontStyle=0;aspect=fixed;shape=mxgraph.aws4.resourceIcon;resIcon=mxgraph.aws4.vpc;shadow=1;whiteSpace=wrap;sketch=0;fontFamily=Helvetica;" parent="1" vertex="1">
          <mxGeometry x="910" y="400" width="78" height="78" as="geometry" />
        </mxCell>
        <mxCell id="79Z5ppwG9dLsAdDoF1kB-8" value="&lt;b style=&quot;&quot;&gt;&lt;font style=&quot;font-size: 16px;&quot;&gt;ClickHouse VPC&lt;/font&gt;&lt;/b&gt;" style="text;html=1;align=center;verticalAlign=middle;rounded=0;fontFamily=Architects Daughter;fontSource=https%3A%2F%2Ffonts.googleapis.com%2Fcss%3Ffamily%3DArchitects%2BDaughter;whiteSpace=wrap;" parent="1" vertex="1">
          <mxGeometry x="910" y="480" width="80" height="50" as="geometry" />
        </mxCell>
        <mxCell id="79Z5ppwG9dLsAdDoF1kB-12" value="" style="sketch=0;points=[[0,0,0],[0.25,0,0],[0.5,0,0],[0.75,0,0],[1,0,0],[0,1,0],[0.25,1,0],[0.5,1,0],[0.75,1,0],[1,1,0],[0,0.25,0],[0,0.5,0],[0,0.75,0],[1,0.25,0],[1,0.5,0],[1,0.75,0]];gradientDirection=north;outlineConnect=0;fontColor=#232F3E;gradientColor=none;fillColor=#0892FF;strokeColor=#ffffff;dashed=0;verticalLabelPosition=bottom;verticalAlign=top;align=center;html=1;fontSize=12;fontStyle=0;aspect=fixed;shape=mxgraph.aws4.resourceIcon;resIcon=mxgraph.aws4.general;hachureGap=4;jiggle=2;curveFitting=1;fontFamily=Helvetica;shadow=1;whiteSpace=wrap;" parent="1" vertex="1">
          <mxGeometry x="-530" y="-590" width="80" height="80" as="geometry" />
        </mxCell>
        <mxCell id="79Z5ppwG9dLsAdDoF1kB-13" value="&lt;span style=&quot;font-size: 14px;&quot;&gt;&lt;b&gt;Crowdstrike&lt;/b&gt;&lt;/span&gt;" style="text;html=1;align=center;verticalAlign=middle;rounded=0;fontFamily=Architects Daughter;fontSource=https%3A%2F%2Ffonts.googleapis.com%2Fcss%3Ffamily%3DArchitects%2BDaughter;whiteSpace=wrap;fontColor=#4D6888;" parent="1" vertex="1">
          <mxGeometry x="-530" y="-510" width="80" height="30" as="geometry" />
        </mxCell>
        <mxCell id="79Z5ppwG9dLsAdDoF1kB-16" style="edgeStyle=orthogonalEdgeStyle;rounded=1;orthogonalLoop=1;jettySize=auto;html=1;exitX=0;exitY=0.5;exitDx=0;exitDy=0;exitPerimeter=0;entryX=0.483;entryY=0.002;entryDx=0;entryDy=0;entryPerimeter=0;shadow=1;hachureGap=4;strokeColor=#545B64;align=center;verticalAlign=middle;fontFamily=Helvetica;fontSize=11;fontColor=default;labelBackgroundColor=default;elbow=vertical;startArrow=none;startFill=0;endArrow=block;endFill=1;flowAnimation=1;curved=0;" parent="1" source="79Z5ppwG9dLsAdDoF1kB-12" edge="1">
          <mxGeometry relative="1" as="geometry">
            <Array as="points">
              <mxPoint x="-570" y="-550" />
              <mxPoint x="-570" y="-360" />
              <mxPoint x="-440" y="-360" />
              <mxPoint x="-440" y="-190" />
              <mxPoint x="-390" y="-190" />
            </Array>
            <mxPoint x="-389.72000000000025" y="-148.63999999999987" as="targetPoint" />
          </mxGeometry>
        </mxCell>
        <mxCell id="79Z5ppwG9dLsAdDoF1kB-21" style="edgeStyle=orthogonalEdgeStyle;rounded=1;orthogonalLoop=1;jettySize=auto;html=1;exitX=1;exitY=0.25;exitDx=0;exitDy=0;exitPerimeter=0;entryX=0.5;entryY=0;entryDx=0;entryDy=0;shadow=1;hachureGap=4;strokeColor=#545B64;align=center;verticalAlign=middle;fontFamily=Helvetica;fontSize=11;fontColor=default;labelBackgroundColor=default;elbow=vertical;startArrow=block;startFill=1;endArrow=block;endFill=1;flowAnimation=1;curved=0;dashed=1;dashPattern=1 2;" parent="1" source="79Z5ppwG9dLsAdDoF1kB-20" target="dGmgLIXejYUsXcEqvrMx-30" edge="1">
          <mxGeometry relative="1" as="geometry">
            <Array as="points">
              <mxPoint x="-540" y="-50" />
              <mxPoint x="-540" y="-70" />
              <mxPoint x="201" y="-70" />
            </Array>
          </mxGeometry>
        </mxCell>
        <mxCell id="79Z5ppwG9dLsAdDoF1kB-22" style="edgeStyle=orthogonalEdgeStyle;rounded=1;orthogonalLoop=1;jettySize=auto;html=1;exitX=1;exitY=0.5;exitDx=0;exitDy=0;exitPerimeter=0;entryX=0.5;entryY=0;entryDx=0;entryDy=0;shadow=1;hachureGap=4;strokeColor=#545B64;align=center;verticalAlign=middle;fontFamily=Helvetica;fontSize=11;fontColor=default;labelBackgroundColor=default;elbow=vertical;startArrow=block;startFill=1;endArrow=block;endFill=1;flowAnimation=1;curved=0;dashed=1;dashPattern=1 2;" parent="1" source="79Z5ppwG9dLsAdDoF1kB-20" target="dGmgLIXejYUsXcEqvrMx-28" edge="1">
          <mxGeometry relative="1" as="geometry">
            <Array as="points">
              <mxPoint x="-540" y="-31" />
              <mxPoint x="-540" y="-70" />
              <mxPoint x="-339" y="-70" />
            </Array>
          </mxGeometry>
        </mxCell>
        <mxCell id="79Z5ppwG9dLsAdDoF1kB-20" value="" style="sketch=0;points=[[0,0,0],[0.25,0,0],[0.5,0,0],[0.75,0,0],[1,0,0],[0,1,0],[0.25,1,0],[0.5,1,0],[0.75,1,0],[1,1,0],[0,0.25,0],[0,0.5,0],[0,0.75,0],[1,0.25,0],[1,0.5,0],[1,0.75,0]];outlineConnect=0;fontColor=#232F3E;fillColor=#002855;strokeColor=#ffffff;dashed=0;verticalLabelPosition=bottom;verticalAlign=top;align=center;html=1;fontSize=12;fontStyle=0;aspect=fixed;shape=mxgraph.aws4.resourceIcon;resIcon=mxgraph.aws4.secrets_manager;shadow=1;fontFamily=Helvetica;" parent="1" vertex="1">
          <mxGeometry x="-990" y="-70" width="78" height="78" as="geometry" />
        </mxCell>
        <mxCell id="79Z5ppwG9dLsAdDoF1kB-24" style="edgeStyle=orthogonalEdgeStyle;rounded=1;orthogonalLoop=1;jettySize=auto;html=1;exitX=1;exitY=0.25;exitDx=0;exitDy=0;exitPerimeter=0;entryX=0.5;entryY=0;entryDx=0;entryDy=0;shadow=1;hachureGap=4;strokeColor=#545B64;align=center;verticalAlign=middle;fontFamily=Helvetica;fontSize=11;fontColor=default;labelBackgroundColor=default;elbow=vertical;startArrow=block;startFill=1;endArrow=block;endFill=1;flowAnimation=1;curved=0;dashed=1;dashPattern=1 2;" parent="1" source="79Z5ppwG9dLsAdDoF1kB-26" target="dGmgLIXejYUsXcEqvrMx-19" edge="1">
          <mxGeometry relative="1" as="geometry">
            <mxPoint x="201" y="310" as="targetPoint" />
            <Array as="points">
              <mxPoint x="-540" y="310" />
              <mxPoint x="-540" y="260" />
              <mxPoint x="201" y="260" />
            </Array>
          </mxGeometry>
        </mxCell>
        <mxCell id="79Z5ppwG9dLsAdDoF1kB-25" style="edgeStyle=orthogonalEdgeStyle;rounded=1;orthogonalLoop=1;jettySize=auto;html=1;exitX=1;exitY=0.5;exitDx=0;exitDy=0;exitPerimeter=0;entryX=0.5;entryY=0;entryDx=0;entryDy=0;shadow=1;hachureGap=4;strokeColor=#545B64;align=center;verticalAlign=middle;fontFamily=Helvetica;fontSize=11;fontColor=default;labelBackgroundColor=default;elbow=vertical;startArrow=block;startFill=1;endArrow=block;endFill=1;flowAnimation=1;curved=0;dashed=1;dashPattern=1 2;" parent="1" source="79Z5ppwG9dLsAdDoF1kB-26" target="dGmgLIXejYUsXcEqvrMx-17" edge="1">
          <mxGeometry relative="1" as="geometry">
            <mxPoint x="-339" y="310" as="targetPoint" />
            <Array as="points">
              <mxPoint x="-540" y="329" />
              <mxPoint x="-540" y="260" />
              <mxPoint x="-360" y="260" />
            </Array>
          </mxGeometry>
        </mxCell>
        <mxCell id="79Z5ppwG9dLsAdDoF1kB-26" value="" style="sketch=0;points=[[0,0,0],[0.25,0,0],[0.5,0,0],[0.75,0,0],[1,0,0],[0,1,0],[0.25,1,0],[0.5,1,0],[0.75,1,0],[1,1,0],[0,0.25,0],[0,0.5,0],[0,0.75,0],[1,0.25,0],[1,0.5,0],[1,0.75,0]];outlineConnect=0;fontColor=#232F3E;fillColor=#002855;strokeColor=#ffffff;dashed=0;verticalLabelPosition=bottom;verticalAlign=top;align=center;html=1;fontSize=12;fontStyle=0;aspect=fixed;shape=mxgraph.aws4.resourceIcon;resIcon=mxgraph.aws4.secrets_manager;shadow=1;fontFamily=Helvetica;" parent="1" vertex="1">
          <mxGeometry x="-990" y="290" width="78" height="78" as="geometry" />
        </mxCell>
        <mxCell id="79Z5ppwG9dLsAdDoF1kB-27" value="&lt;font face=&quot;Garamond&quot;&gt;&lt;b&gt;Structure of an example DAG&lt;/b&gt;&lt;/font&gt;" style="text;html=1;align=center;verticalAlign=middle;rounded=0;fontFamily=Architects Daughter;fontSource=https%3A%2F%2Ffonts.googleapis.com%2Fcss%3Ffamily%3DArchitects%2BDaughter;rotation=0;whiteSpace=wrap;fontColor=#4D6888;fontSize=14;" parent="1" vertex="1">
          <mxGeometry x="-460" y="-110" width="200" height="30" as="geometry" />
        </mxCell>
        <mxCell id="79Z5ppwG9dLsAdDoF1kB-28" value="&lt;font face=&quot;Garamond&quot;&gt;&lt;b&gt;Structure of an example DAG&lt;/b&gt;&lt;/font&gt;" style="text;html=1;align=center;verticalAlign=middle;rounded=0;fontFamily=Architects Daughter;fontSource=https%3A%2F%2Ffonts.googleapis.com%2Fcss%3Ffamily%3DArchitects%2BDaughter;rotation=0;whiteSpace=wrap;fontColor=#4D6888;fontSize=14;" parent="1" vertex="1">
          <mxGeometry x="-460" y="210" width="200" height="30" as="geometry" />
        </mxCell>
        <mxCell id="79Z5ppwG9dLsAdDoF1kB-29" value="&lt;b style=&quot;&quot;&gt;&lt;font style=&quot;font-size: 16px;&quot;&gt;Internet&lt;/font&gt;&lt;/b&gt;" style="text;html=1;align=center;verticalAlign=middle;rounded=0;fontFamily=Architects Daughter;fontSource=https%3A%2F%2Ffonts.googleapis.com%2Fcss%3Ffamily%3DArchitects%2BDaughter;whiteSpace=wrap;fontColor=#4D6888;" parent="1" vertex="1">
          <mxGeometry x="230" y="-320" width="80" height="40" as="geometry" />
        </mxCell>
        <mxCell id="blOMRGU2Qpg2BWpJeMrX-1" value="" style="sketch=0;points=[[0,0,0],[0.25,0,0],[0.5,0,0],[0.75,0,0],[1,0,0],[0,1,0],[0.25,1,0],[0.5,1,0],[0.75,1,0],[1,1,0],[0,0.25,0],[0,0.5,0],[0,0.75,0],[1,0.25,0],[1,0.5,0],[1,0.75,0]];gradientDirection=north;outlineConnect=0;fontColor=#232F3E;gradientColor=none;fillColor=#0892FF;strokeColor=#ffffff;dashed=0;verticalLabelPosition=bottom;verticalAlign=top;align=center;html=1;fontSize=12;fontStyle=0;aspect=fixed;shape=mxgraph.aws4.resourceIcon;resIcon=mxgraph.aws4.general;hachureGap=4;jiggle=2;curveFitting=1;fontFamily=Helvetica;shadow=1;whiteSpace=wrap;" vertex="1" parent="1">
          <mxGeometry x="-690" y="-590" width="80" height="80" as="geometry" />
        </mxCell>
        <mxCell id="blOMRGU2Qpg2BWpJeMrX-2" value="&lt;span style=&quot;font-size: 14px;&quot;&gt;&lt;b&gt;Carbon Black&lt;/b&gt;&lt;/span&gt;" style="text;html=1;align=center;verticalAlign=middle;rounded=0;fontFamily=Architects Daughter;fontSource=https%3A%2F%2Ffonts.googleapis.com%2Fcss%3Ffamily%3DArchitects%2BDaughter;whiteSpace=wrap;fontColor=#4D6888;" vertex="1" parent="1">
          <mxGeometry x="-700" y="-510" width="100" height="30" as="geometry" />
        </mxCell>
        <mxCell id="blOMRGU2Qpg2BWpJeMrX-3" style="edgeStyle=orthogonalEdgeStyle;rounded=1;orthogonalLoop=1;jettySize=auto;html=1;exitX=0;exitY=0.5;exitDx=0;exitDy=0;exitPerimeter=0;entryX=0.483;entryY=0.002;entryDx=0;entryDy=0;entryPerimeter=0;shadow=1;hachureGap=4;strokeColor=#545B64;align=center;verticalAlign=middle;fontFamily=Helvetica;fontSize=11;fontColor=default;labelBackgroundColor=default;elbow=vertical;startArrow=none;startFill=0;endArrow=block;endFill=1;flowAnimation=1;curved=0;" edge="1" parent="1" source="blOMRGU2Qpg2BWpJeMrX-1">
          <mxGeometry relative="1" as="geometry">
            <Array as="points">
              <mxPoint x="-730" y="-550" />
              <mxPoint x="-730" y="-360" />
              <mxPoint x="-440" y="-360" />
              <mxPoint x="-440" y="-190" />
              <mxPoint x="-550" y="-190" />
            </Array>
            <mxPoint x="-690" y="-550" as="sourcePoint" />
            <mxPoint x="-550" y="-149" as="targetPoint" />
          </mxGeometry>
        </mxCell>
        <mxCell id="blOMRGU2Qpg2BWpJeMrX-7" value="" style="sketch=0;points=[[0,0,0],[0.25,0,0],[0.5,0,0],[0.75,0,0],[1,0,0],[0,1,0],[0.25,1,0],[0.5,1,0],[0.75,1,0],[1,1,0],[0,0.25,0],[0,0.5,0],[0,0.75,0],[1,0.25,0],[1,0.5,0],[1,0.75,0]];gradientDirection=north;outlineConnect=0;fontColor=#232F3E;gradientColor=none;fillColor=#0892FF;strokeColor=#ffffff;dashed=0;verticalLabelPosition=bottom;verticalAlign=top;align=center;html=1;fontSize=12;fontStyle=0;aspect=fixed;shape=mxgraph.aws4.resourceIcon;resIcon=mxgraph.aws4.general;hachureGap=4;jiggle=2;curveFitting=1;fontFamily=Helvetica;shadow=1;whiteSpace=wrap;" vertex="1" parent="1">
          <mxGeometry x="-690" y="-470" width="80" height="80" as="geometry" />
        </mxCell>
        <mxCell id="blOMRGU2Qpg2BWpJeMrX-8" value="&lt;span style=&quot;font-size: 14px;&quot;&gt;&lt;b&gt;Proofpoint&lt;/b&gt;&lt;/span&gt;" style="text;html=1;align=center;verticalAlign=middle;rounded=0;fontFamily=Architects Daughter;fontSource=https%3A%2F%2Ffonts.googleapis.com%2Fcss%3Ffamily%3DArchitects%2BDaughter;whiteSpace=wrap;fontColor=#4D6888;" vertex="1" parent="1">
          <mxGeometry x="-700" y="-390" width="100" height="30" as="geometry" />
        </mxCell>
        <mxCell id="blOMRGU2Qpg2BWpJeMrX-10" style="edgeStyle=orthogonalEdgeStyle;rounded=1;orthogonalLoop=1;jettySize=auto;html=1;exitX=0;exitY=0.5;exitDx=0;exitDy=0;exitPerimeter=0;shadow=1;hachureGap=4;strokeColor=#545B64;align=center;verticalAlign=middle;fontFamily=Helvetica;fontSize=11;fontColor=default;labelBackgroundColor=default;elbow=vertical;startArrow=none;startFill=0;endArrow=block;endFill=1;flowAnimation=1;curved=0;" edge="1" parent="1" source="blOMRGU2Qpg2BWpJeMrX-7">
          <mxGeometry relative="1" as="geometry">
            <Array as="points">
              <mxPoint x="-730" y="-430" />
              <mxPoint x="-730" y="-360" />
              <mxPoint x="-440" y="-360" />
              <mxPoint x="-440" y="-190" />
              <mxPoint x="-580" y="-190" />
              <mxPoint x="-580" y="-150" />
            </Array>
            <mxPoint x="-690" y="-440" as="sourcePoint" />
            <mxPoint x="-580" y="-150" as="targetPoint" />
          </mxGeometry>
        </mxCell>
        <mxCell id="blOMRGU2Qpg2BWpJeMrX-11" value="" style="rounded=0;html=1;hachureGap=4;fontFamily=Architects Daughter;fontSource=https%3A%2F%2Ffonts.googleapis.com%2Fcss%3Ffamily%3DArchitects%2BDaughter;strokeWidth=2;fillColor=none;whiteSpace=wrap;strokeColor=#4D6888;" vertex="1" parent="1">
          <mxGeometry x="360" y="-670" width="640" height="390" as="geometry" />
        </mxCell>
        <mxCell id="blOMRGU2Qpg2BWpJeMrX-12" value="" style="rounded=0;html=1;hachureGap=4;fontFamily=Architects Daughter;fontSource=https%3A%2F%2Ffonts.googleapis.com%2Fcss%3Ffamily%3DArchitects%2BDaughter;strokeWidth=0.5;fillColor=none;whiteSpace=wrap;backgroundOutline=0;glass=0;strokeColor=#4D6888;" vertex="1" parent="1">
          <mxGeometry x="520" y="-630" width="360" height="290" as="geometry" />
        </mxCell>
        <mxCell id="blOMRGU2Qpg2BWpJeMrX-13" value="" style="sketch=0;outlineConnect=0;fontColor=#232F3E;strokeColor=#ffffff;fillColor=#002855;dashed=0;verticalLabelPosition=bottom;verticalAlign=top;align=center;html=1;fontSize=12;fontStyle=0;aspect=fixed;shape=mxgraph.aws4.resourceIcon;resIcon=mxgraph.aws4.internet;hachureGap=4;jiggle=2;curveFitting=1;fontFamily=Helvetica;shadow=1;whiteSpace=wrap;" vertex="1" parent="1">
          <mxGeometry x="920" y="-400" width="80" height="80" as="geometry" />
        </mxCell>
        <mxCell id="blOMRGU2Qpg2BWpJeMrX-14" value="&lt;font style=&quot;font-size: 14px;&quot;&gt;&lt;b&gt;Non-SIEM Data Sources&lt;/b&gt;&lt;/font&gt;" style="text;html=1;align=center;verticalAlign=middle;rounded=0;fontFamily=Architects Daughter;fontSource=https%3A%2F%2Ffonts.googleapis.com%2Fcss%3Ffamily%3DArchitects%2BDaughter;whiteSpace=wrap;fontColor=#4D6888;" vertex="1" parent="1">
          <mxGeometry x="560" y="-630" width="240" height="30" as="geometry" />
        </mxCell>
        <mxCell id="blOMRGU2Qpg2BWpJeMrX-15" value="&lt;b style=&quot;&quot;&gt;&lt;font style=&quot;font-size: 16px;&quot;&gt;On-prem APIs&lt;/font&gt;&lt;/b&gt;" style="text;html=1;align=center;verticalAlign=middle;rounded=0;fontFamily=Architects Daughter;fontSource=https%3A%2F%2Ffonts.googleapis.com%2Fcss%3Ffamily%3DArchitects%2BDaughter;whiteSpace=wrap;fontColor=#4D6888;" vertex="1" parent="1">
          <mxGeometry x="600" y="-720" width="240" height="50" as="geometry" />
        </mxCell>
        <mxCell id="blOMRGU2Qpg2BWpJeMrX-20" value="" style="sketch=0;points=[[0,0,0],[0.25,0,0],[0.5,0,0],[0.75,0,0],[1,0,0],[0,1,0],[0.25,1,0],[0.5,1,0],[0.75,1,0],[1,1,0],[0,0.25,0],[0,0.5,0],[0,0.75,0],[1,0.25,0],[1,0.5,0],[1,0.75,0]];gradientDirection=north;outlineConnect=0;fontColor=#232F3E;gradientColor=none;fillColor=#0892FF;strokeColor=#ffffff;dashed=0;verticalLabelPosition=bottom;verticalAlign=top;align=center;html=1;fontSize=12;fontStyle=0;aspect=fixed;shape=mxgraph.aws4.resourceIcon;resIcon=mxgraph.aws4.general;hachureGap=4;jiggle=2;curveFitting=1;fontFamily=Helvetica;shadow=1;whiteSpace=wrap;" vertex="1" parent="1">
          <mxGeometry x="552.64" y="-470" width="80" height="80" as="geometry" />
        </mxCell>
        <mxCell id="blOMRGU2Qpg2BWpJeMrX-21" value="&lt;font style=&quot;font-size: 14px;&quot;&gt;&lt;b&gt;Firemon&lt;/b&gt;&lt;/font&gt;" style="text;html=1;align=center;verticalAlign=middle;rounded=0;fontFamily=Architects Daughter;fontSource=https%3A%2F%2Ffonts.googleapis.com%2Fcss%3Ffamily%3DArchitects%2BDaughter;whiteSpace=wrap;fontColor=#4D6888;" vertex="1" parent="1">
          <mxGeometry x="552.64" y="-390" width="80" height="30" as="geometry" />
        </mxCell>
        <mxCell id="blOMRGU2Qpg2BWpJeMrX-22" style="edgeStyle=orthogonalEdgeStyle;rounded=1;hachureGap=4;orthogonalLoop=1;jettySize=auto;html=1;exitX=1;exitY=0.5;exitDx=0;exitDy=0;fontFamily=Helvetica;shadow=1;strokeColor=#545B64;align=center;verticalAlign=middle;fontSize=11;fontColor=default;labelBackgroundColor=default;elbow=vertical;startArrow=none;startFill=0;endArrow=block;endFill=1;flowAnimation=1;curved=0;exitPerimeter=0;" edge="1" parent="1" source="blOMRGU2Qpg2BWpJeMrX-20">
          <mxGeometry relative="1" as="geometry">
            <mxPoint x="472.64" y="-430" as="sourcePoint" />
            <mxPoint x="400" y="-150" as="targetPoint" />
            <Array as="points">
              <mxPoint x="673" y="-430" />
              <mxPoint x="673" y="-350" />
              <mxPoint x="473" y="-350" />
              <mxPoint x="473" y="-190" />
              <mxPoint x="400" y="-190" />
            </Array>
          </mxGeometry>
        </mxCell>
        <mxCell id="blOMRGU2Qpg2BWpJeMrX-26" value="" style="sketch=0;points=[[0,0,0],[0.25,0,0],[0.5,0,0],[0.75,0,0],[1,0,0],[0,1,0],[0.25,1,0],[0.5,1,0],[0.75,1,0],[1,1,0],[0,0.25,0],[0,0.5,0],[0,0.75,0],[1,0.25,0],[1,0.5,0],[1,0.75,0]];gradientDirection=north;outlineConnect=0;fontColor=#232F3E;gradientColor=none;fillColor=#0892FF;strokeColor=#ffffff;dashed=0;verticalLabelPosition=bottom;verticalAlign=top;align=center;html=1;fontSize=12;fontStyle=0;aspect=fixed;shape=mxgraph.aws4.resourceIcon;resIcon=mxgraph.aws4.general;hachureGap=4;jiggle=2;curveFitting=1;fontFamily=Helvetica;shadow=1;whiteSpace=wrap;" vertex="1" parent="1">
          <mxGeometry x="-840" y="-470" width="80" height="80" as="geometry" />
        </mxCell>
        <mxCell id="blOMRGU2Qpg2BWpJeMrX-27" style="edgeStyle=orthogonalEdgeStyle;rounded=1;orthogonalLoop=1;jettySize=auto;html=1;exitX=0;exitY=0.5;exitDx=0;exitDy=0;exitPerimeter=0;shadow=1;hachureGap=4;strokeColor=#545B64;align=center;verticalAlign=middle;fontFamily=Helvetica;fontSize=11;fontColor=default;labelBackgroundColor=default;elbow=vertical;startArrow=none;startFill=0;endArrow=block;endFill=1;flowAnimation=1;curved=0;" edge="1" parent="1" source="blOMRGU2Qpg2BWpJeMrX-26">
          <mxGeometry relative="1" as="geometry">
            <Array as="points">
              <mxPoint x="-880" y="-430" />
              <mxPoint x="-880" y="-360" />
              <mxPoint x="-440" y="-360" />
              <mxPoint x="-440" y="-190" />
              <mxPoint x="-620" y="-190" />
            </Array>
            <mxPoint x="-840" y="-440" as="sourcePoint" />
            <mxPoint x="-620" y="-150" as="targetPoint" />
          </mxGeometry>
        </mxCell>
        <mxCell id="blOMRGU2Qpg2BWpJeMrX-29" value="" style="rounded=1;html=1;hachureGap=4;fontFamily=Architects Daughter;fontSource=https%3A%2F%2Ffonts.googleapis.com%2Fcss%3Ffamily%3DArchitects%2BDaughter;fillColor=none;dashed=1;strokeWidth=2;whiteSpace=wrap;" vertex="1" parent="1">
          <mxGeometry x="-810" y="290" width="220" height="190" as="geometry" />
        </mxCell>
        <mxCell id="blOMRGU2Qpg2BWpJeMrX-30" value="" style="points=[[0,0,0],[0.25,0,0],[0.5,0,0],[0.75,0,0],[1,0,0],[0,1,0],[0.25,1,0],[0.5,1,0],[0.75,1,0],[1,1,0],[0,0.25,0],[0,0.5,0],[0,0.75,0],[1,0.25,0],[1,0.5,0],[1,0.75,0]];outlineConnect=0;fontColor=#232F3E;fillColor=#002855;strokeColor=#ffffff;dashed=0;verticalLabelPosition=bottom;verticalAlign=top;align=center;html=1;fontSize=12;fontStyle=0;aspect=fixed;shape=mxgraph.aws4.resourceIcon;resIcon=mxgraph.aws4.vpc_privatelink;shadow=1;whiteSpace=wrap;sketch=0;fontFamily=Helvetica;" vertex="1" parent="1">
          <mxGeometry x="-740" y="350" width="78" height="78" as="geometry" />
        </mxCell>
        <mxCell id="blOMRGU2Qpg2BWpJeMrX-31" value="&lt;font style=&quot;font-size: 14px;&quot;&gt;&lt;b&gt;Private Link&lt;/b&gt;&lt;/font&gt;" style="text;html=1;align=center;verticalAlign=middle;rounded=0;fontFamily=Architects Daughter;fontSource=https%3A%2F%2Ffonts.googleapis.com%2Fcss%3Ffamily%3DArchitects%2BDaughter;whiteSpace=wrap;fontColor=#4D6888;" vertex="1" parent="1">
          <mxGeometry x="-740" y="320" width="80" height="30" as="geometry" />
        </mxCell>
        <mxCell id="blOMRGU2Qpg2BWpJeMrX-32" value="" style="rounded=1;html=1;hachureGap=4;fontFamily=Architects Daughter;fontSource=https%3A%2F%2Ffonts.googleapis.com%2Fcss%3Ffamily%3DArchitects%2BDaughter;fillColor=none;dashed=1;strokeWidth=2;whiteSpace=wrap;" vertex="1" parent="1">
          <mxGeometry x="-810" y="-70" width="220" height="190" as="geometry" />
        </mxCell>
        <mxCell id="blOMRGU2Qpg2BWpJeMrX-33" value="" style="points=[[0,0,0],[0.25,0,0],[0.5,0,0],[0.75,0,0],[1,0,0],[0,1,0],[0.25,1,0],[0.5,1,0],[0.75,1,0],[1,1,0],[0,0.25,0],[0,0.5,0],[0,0.75,0],[1,0.25,0],[1,0.5,0],[1,0.75,0]];outlineConnect=0;fontColor=#232F3E;fillColor=#002855;strokeColor=#ffffff;dashed=0;verticalLabelPosition=bottom;verticalAlign=top;align=center;html=1;fontSize=12;fontStyle=0;aspect=fixed;shape=mxgraph.aws4.resourceIcon;resIcon=mxgraph.aws4.vpc_privatelink;shadow=1;whiteSpace=wrap;sketch=0;fontFamily=Helvetica;" vertex="1" parent="1">
          <mxGeometry x="-740" y="-10" width="78" height="78" as="geometry" />
        </mxCell>
        <mxCell id="blOMRGU2Qpg2BWpJeMrX-34" value="&lt;font style=&quot;font-size: 14px;&quot;&gt;&lt;b&gt;Private Link&lt;/b&gt;&lt;/font&gt;" style="text;html=1;align=center;verticalAlign=middle;rounded=0;fontFamily=Architects Daughter;fontSource=https%3A%2F%2Ffonts.googleapis.com%2Fcss%3Ffamily%3DArchitects%2BDaughter;whiteSpace=wrap;fontColor=#4D6888;" vertex="1" parent="1">
          <mxGeometry x="-740" y="-40" width="80" height="30" as="geometry" />
        </mxCell>
        <mxCell id="blOMRGU2Qpg2BWpJeMrX-36" value="&lt;span style=&quot;font-size: 14px;&quot;&gt;&lt;b&gt;Mimecast&lt;/b&gt;&lt;/span&gt;" style="text;html=1;align=center;verticalAlign=middle;rounded=0;fontFamily=Architects Daughter;fontSource=https%3A%2F%2Ffonts.googleapis.com%2Fcss%3Ffamily%3DArchitects%2BDaughter;whiteSpace=wrap;fontColor=#4D6888;" vertex="1" parent="1">
          <mxGeometry x="-850" y="-390" width="100" height="30" as="geometry" />
        </mxCell>
        <mxCell id="blOMRGU2Qpg2BWpJeMrX-38" value="&lt;b style=&quot;&quot;&gt;&lt;font style=&quot;font-size: 16px;&quot;&gt;Internet&lt;/font&gt;&lt;/b&gt;" style="text;html=1;align=center;verticalAlign=middle;rounded=0;fontFamily=Architects Daughter;fontSource=https%3A%2F%2Ffonts.googleapis.com%2Fcss%3Ffamily%3DArchitects%2BDaughter;whiteSpace=wrap;fontColor=#4D6888;" vertex="1" parent="1">
          <mxGeometry x="920" y="-320" width="80" height="40" as="geometry" />
        </mxCell>
        <mxCell id="blOMRGU2Qpg2BWpJeMrX-39" value="&lt;font face=&quot;Garamond&quot;&gt;&lt;b&gt;HTTPS&lt;/b&gt;&lt;/font&gt;" style="text;html=1;align=center;verticalAlign=middle;rounded=0;fontFamily=Architects Daughter;fontSource=https%3A%2F%2Ffonts.googleapis.com%2Fcss%3Ffamily%3DArchitects%2BDaughter;rotation=0;whiteSpace=wrap;fontColor=#4D6888;" vertex="1" parent="1">
          <mxGeometry x="420" y="-280" width="40" height="30" as="geometry" />
        </mxCell>
        <mxCell id="blOMRGU2Qpg2BWpJeMrX-40" value="&lt;pre&gt;&lt;b style=&quot;&quot;&gt;&lt;font face=&quot;Garamond&quot;&gt;PORT: 443&lt;/font&gt;&lt;/b&gt;&lt;/pre&gt;" style="text;html=1;align=center;verticalAlign=middle;rounded=0;fontFamily=Architects Daughter;fontSource=https%3A%2F%2Ffonts.googleapis.com%2Fcss%3Ffamily%3DArchitects%2BDaughter;rotation=0;whiteSpace=wrap;fontColor=#4D6888;" vertex="1" parent="1">
          <mxGeometry x="470" y="-280" width="80" height="30" as="geometry" />
        </mxCell>
      </root>
    </mxGraphModel>
  </diagram>
</mxfile>
